<?xml version="1.0" encoding="UTF-8"?>
<svg id="Ebene_9" xmlns="http://www.w3.org/2000/svg" version="1.1" viewBox="0 0 520 520">
  <!-- Generator: Adobe Illustrator 29.1.0, SVG Export Plug-In . SVG Version: 2.1.0 Build 142)  -->
  <path d="M260,0C116.41,0,0,116.41,0,260s116.41,260,260,260,260-116.41,260-260S403.59,0,260,0ZM429.71,429.71c-22.05,22.05-47.72,39.36-76.29,51.44-25.51,10.79-52.4,16.98-80.1,18.48v-205.08c7.14,2.09,14.69,3.24,22.5,3.24,37.95,0,70.98-26.99,78.55-64.2,6.79-33.6,23.46-64.04,48.21-88.05l10.57-10.25-13.43-6.05c-21.1-9.5-43.63-14.32-66.95-14.32-41.36,0-80.82,15.5-111.1,43.64-16.53,15.18-26.01,36.71-26.01,59.07,0,28.59,15.06,53.72,37.65,67.91v76.42c-2.9-4.51-6.1-8.86-9.59-13,2.25-6.5,3.49-13.47,3.49-20.72,0-27.84-18.64-52.86-45.3-60.85-10.74-3.25-21.92-4.89-33.23-4.89-36.57,0-70.09,16.81-91.97,46.12l-8.17,10.95,12.91,4.48c19.94,6.92,37.24,20.56,48.7,38.41,11.78,18.37,31.79,29.33,53.52,29.33,20.01,0,37.89-9.31,49.54-23.82,13.02,17.99,20.1,39.71,20.1,62.1v69.84c-30.04-.81-59.19-7.11-86.72-18.75-28.58-12.09-54.25-29.39-76.29-51.44-22.05-22.05-39.36-47.72-51.44-76.29-12.51-29.58-18.85-61-18.85-93.41s6.34-63.84,18.85-93.41c12.09-28.58,29.39-54.25,51.44-76.29,22.05-22.05,47.72-39.36,76.29-51.44,29.58-12.51,61-18.85,93.41-18.85s63.84,6.34,93.41,18.85c28.58,12.09,54.25,29.39,76.29,51.44,22.05,22.05,39.36,47.72,51.44,76.29,12.51,29.58,18.85,61,18.85,93.41s-6.34,63.84-18.85,93.41c-12.09,28.58-29.39,54.25-51.44,76.29ZM300.44,186.41c-25.17,17.65-41.68,44.88-45.99,74.84-11.56-10.97-18.78-26.45-18.78-43.61s7.13-32.95,19.55-44.35l.05-.05c26.57-24.71,61.2-38.31,97.51-38.31,15.61,0,30.8,2.46,45.34,7.32-21.89,24.87-36.78,54.8-43.36,87.38-5.68,27.91-30.47,48.17-58.95,48.17-7.92,0-15.49-1.56-22.42-4.35,1.1-28.16,15.32-54.38,38.54-70.66l-11.48-16.37ZM219.69,352.67c-7.84,11.52-21.06,19.11-36.02,19.11s-28.6-7.53-36.69-20.14h0c-11.28-17.56-27.22-31.76-45.77-40.96,17.7-18.05,41.67-28.19,67.47-28.19,9.35,0,18.59,1.36,27.47,4.04,18.29,5.48,31.06,22.63,31.06,41.7,0,1.43-.07,2.85-.21,4.25-17.45-14.25-38.48-23.65-60.91-26.99l-2.95,19.78c21.21,3.16,40.92,12.78,56.55,27.39Z"/>
</svg>