<svg width="18" height="18" viewBox="0 0 18 18" fill="none" xmlns="http://www.w3.org/2000/svg">
<g clip-path="url(#clip0_61_424)">
<path d="M14.2471 9C14.2471 9.2 14.2091 9.389 14.1321 9.566C14.0551 9.743 13.9331 9.912 13.7661 10.072L6.05905 17.619C5.79805 17.873 5.48105 18 5.10705 18C4.86605 18 4.64305 17.94 4.43605 17.82C4.22905 17.7 4.06305 17.539 3.94005 17.339C3.81605 17.139 3.75505 16.911 3.75505 16.657C3.75505 16.289 3.89505 15.962 4.17605 15.675L11.0411 9L4.17405 2.325C3.89305 2.044 3.75305 1.717 3.75305 1.343C3.75305 1.096 3.81505 0.87 3.93805 0.666C4.06205 0.462 4.22705 0.3 4.43405 0.18C4.64105 0.06 4.86505 0 5.10505 0C5.47905 0 5.79705 0.127 6.05705 0.381L13.7641 7.928C13.9241 8.088 14.0451 8.255 14.1251 8.429C14.2051 8.603 14.2451 8.793 14.2451 9H14.2471Z" fill="#BFBFBF"/>
</g>
<defs>
<clipPath id="clip0_61_424">
<rect width="18" height="18" fill="white"/>
</clipPath>
</defs>
</svg>
