<?xml version="1.0" encoding="UTF-8"?>
<svg id="Ebene_9" xmlns="http://www.w3.org/2000/svg" version="1.1" viewBox="0 0 520 520">
  <!-- Generator: Adobe Illustrator 29.1.0, SVG Export Plug-In . SVG Version: 2.1.0 Build 142)  -->
  <path d="M384.4,304.74l-7.67-1.55c-10.69-2.15-21.44-2.65-31.94-1.59l37.77,37.77c1.83-8.69,2.58-17.68,2.18-26.82l-.34-7.82Z"/>
  <path d="M260,0C116.41,0,0,116.41,0,260s116.41,260,260,260,260-116.41,260-260S403.59,0,260,0ZM270,499.78v-77.09c3.13.28,6.26.42,9.37.42,24.98,0,49.15-8.81,68.53-25.39,1.32-1.13,2.6-2.29,3.86-3.48l-14.16-14.16c-.89.83-1.78,1.65-2.71,2.44-18.09,15.49-41.35,22.61-64.84,20.09,1.13-23.42,11.61-45.14,29.46-60.61l-14.17-14.17c-5.78,5.14-10.9,10.83-15.34,16.94v-32.96l-18.56-17.9-8.46-8.51c-21.08.56-41.57-6.57-57.87-20.53-18.1-15.49-28.72-37.36-29.85-60.96,1.95-.21,3.89-.33,5.83-.4l-17.94-17.94-7.55,1.52-.34,7.82c-1.45,32.84,11.98,63.88,36.85,85.16,19.38,16.59,43.55,25.4,68.53,25.39,3.12,0,6.24-.14,9.37-.41v39.7c-4.84-6.66-10.48-12.81-16.9-18.3-24.86-21.28-57.61-29.76-89.83-23.26l-7.67,1.55-.34,7.82c-1.45,32.84,11.98,63.88,36.85,85.16,19.38,16.59,43.55,25.4,68.53,25.39,3.11,0,6.24-.15,9.37-.42v77.09c-28.87-1.17-56.89-7.41-83.41-18.63-28.58-12.09-54.25-29.39-76.29-51.44-22.05-22.05-39.36-47.72-51.44-76.29-12.51-29.58-18.85-61-18.85-93.41s6.34-63.84,18.85-93.41c10.79-25.5,25.74-48.68,44.5-69.04l339.1,339.1c-20.36,18.76-43.54,33.72-69.04,44.5-26.52,11.22-54.54,17.46-83.41,18.63ZM249.95,402.61c-23.49,2.52-46.75-4.6-64.84-20.09-18.1-15.49-28.72-37.36-29.85-60.96,23.49-2.52,46.75,4.6,64.84,20.09,18.1,15.49,28.72,37.36,29.85,60.96ZM436.6,422.5L97.5,83.4c20.38-18.78,43.57-33.75,69.09-44.55,29.58-12.51,61-18.85,93.41-18.85s63.84,6.34,93.41,18.85c28.58,12.09,54.25,29.39,76.29,51.44,22.05,22.05,39.36,47.72,51.44,76.29,12.51,29.58,18.85,61,18.85,93.41s-6.34,63.84-18.85,93.41c-10.8,25.52-25.77,48.72-44.55,69.09Z"/>
  <path d="M384.4,187.09l-7.67-1.55c-32.22-6.5-64.97,1.98-89.83,23.26-6.38,5.46-12.04,11.62-16.85,18.24v-19.66c22.87-19.92,36.9-51.24,36.9-82.99s-14.85-63.11-40.74-83.37l-6.16-4.82-6.16,4.82c-25.89,20.26-40.74,50.64-40.74,83.37s14.05,63.1,36.94,83.02l19.82,19.82h0s.14.14.14.14h0s14.28,14.2,14.28,14.2c4.31-6.45,9.52-12.38,15.58-17.57,18.1-15.49,41.35-22.61,64.84-20.09-1.13,23.6-11.76,45.48-29.86,60.96-5.06,4.33-10.53,7.98-16.29,10.98l14.7,14.7c5.1-3.05,9.98-6.54,14.59-10.48,24.86-21.28,38.29-52.32,36.85-85.16l-.34-7.82ZM233.14,124.39c0-23.82,9.71-46.12,26.9-62.32,17.19,16.21,26.9,38.5,26.9,62.32s-10.15,48.79-26.9,65.04c-16.75-16.25-26.9-40.45-26.9-65.04Z"/>
</svg>