<?xml version="1.0" encoding="UTF-8"?>
<svg id="Ebene_1" xmlns="http://www.w3.org/2000/svg" version="1.1" viewBox="0 0 180 180">
  <!-- Generator: Adobe Illustrator 29.1.0, SVG Export Plug-In . SVG Version: 2.1.0 Build 142)  -->
  <path d="M166.5,76.5h-63V13.5c0-7.46-6.04-13.5-13.5-13.5h0c-7.46,0-13.5,6.04-13.5,13.5v63H13.5c-7.46,0-13.5,6.04-13.5,13.5h0c0,7.46,6.04,13.5,13.5,13.5h63v63c0,7.46,6.04,13.5,13.5,13.5h0c7.46,0,13.5-6.04,13.5-13.5v-63h63c7.46,0,13.5-6.04,13.5-13.5h0c0-7.46-6.04-13.5-13.5-13.5Z"/>
</svg>