<?xml version="1.0" encoding="UTF-8"?>
<svg id="Ebene_1" xmlns="http://www.w3.org/2000/svg" version="1.1" viewBox="0 0 180 180">
  <!-- Generator: Adobe Illustrator 29.1.0, SVG Export Plug-In . SVG Version: 2.1.0 Build 142)  -->
  <path d="M142.47,90c0,2-.38,3.89-1.15,5.66-.77,1.77-1.99,3.46-3.66,5.06l-77.07,75.47c-2.61,2.54-5.78,3.81-9.52,3.81-2.41,0-4.64-.6-6.71-1.8-2.07-1.2-3.73-2.81-4.96-4.81-1.24-2-1.85-4.28-1.85-6.82,0-3.68,1.4-6.95,4.21-9.82l68.65-66.75L41.74,23.25c-2.81-2.81-4.21-6.08-4.21-9.82,0-2.47.62-4.73,1.85-6.77,1.24-2.04,2.89-3.66,4.96-4.86,2.07-1.2,4.31-1.8,6.71-1.8,3.74,0,6.92,1.27,9.52,3.81l77.07,75.47c1.6,1.6,2.81,3.27,3.61,5.01.8,1.74,1.2,3.64,1.2,5.71Z"/>
</svg>