<?xml version="1.0" encoding="UTF-8"?>
<svg id="Ebene_9" xmlns="http://www.w3.org/2000/svg" version="1.1" viewBox="0 0 520 520">
  <!-- Generator: Adobe Illustrator 29.1.0, SVG Export Plug-In . SVG Version: 2.1.0 Build 142)  -->
  <rect x="250" y="41.48" width="20" height="124.08"/>
  <path d="M260,0C116.41,0,0,116.41,0,260s116.41,260,260,260,260-116.41,260-260S403.59,0,260,0ZM215.83,351.52l34.17,25.33v30.46l-34.17-25.33v-30.46ZM250,210.77v30.46l-34.17-25.33v-30.46l34.17,25.33ZM304.17,185.43v30.46l-34.17,25.33v-30.46l34.17-25.33ZM270,391.68v-14.83l34.17-25.33v30.46l-34.17,25.33v-15.63ZM270,351.94v-30.45l34.17-25.33v30.45l-34.17,25.33ZM270,296.58v-30.45l34.17-25.33v30.45l-34.17,25.33ZM250,266.14v30.45l-34.17-25.33v-30.45l34.17,25.33ZM250,321.49v30.45l-34.17-25.33v-30.45l34.17,25.33ZM429.71,429.71c-22.05,22.05-47.72,39.36-76.29,51.44-26.52,11.22-54.54,17.46-83.41,18.63v-67.57l54.17-40.16V91.43h-20v69.11l-44.17,32.75-44.17-32.75v-69.11h-20v300.62l54.17,40.16v67.57c-28.87-1.17-56.89-7.41-83.41-18.63-28.58-12.09-54.25-29.39-76.29-51.44-22.05-22.05-39.36-47.72-51.44-76.29-12.51-29.58-18.85-61-18.85-93.41s6.34-63.84,18.85-93.41c12.09-28.58,29.39-54.25,51.44-76.29,22.05-22.05,47.72-39.36,76.29-51.44,29.58-12.51,61-18.85,93.41-18.85s63.84,6.34,93.41,18.85c28.58,12.09,54.25,29.39,76.29,51.44,22.05,22.05,39.36,47.72,51.44,76.29,12.51,29.58,18.85,61,18.85,93.41s-6.34,63.84-18.85,93.41c-12.09,28.58-29.39,54.25-51.44,76.29Z"/>
</svg>