<?xml version="1.0" encoding="UTF-8"?>
<svg id="Ebene_1" xmlns="http://www.w3.org/2000/svg" version="1.1" viewBox="0 0 1410 480">
  <!-- Generator: Adobe Illustrator 29.1.0, SVG Export Plug-In . SVG Version: 2.1.0 Build 142)  -->
  <defs>
    <style>
      .st0 {
        isolation: isolate;
      }
    </style>
  </defs>
  <g class="st0">
    <g class="st0">
      <path d="M77.1,3.1c22,0,66.6,0,66.6,32.7s-29.7,35.7-65.5,36H23.4v36.1H4.1V2.9h72.9l.2.2ZM124.5,35.9c0-13.5-34-13.5-47.4-13.5H23.6v30.1h48.7c53.5,0,52.2-8.8,52.2-16.6Z"/>
      <path d="M161.7,107.9V2.9h19.3v105h-19.3Z"/>
      <path d="M345.3,22.1l-109.5,66.4h109.5v19.3h-146.2v-19.6l108.6-66h-108.6V2.9h146.2v19.2Z"/>
      <path d="M509.6,22.1l-109.5,66.4h109.5v19.3h-146.2v-19.6l108.6-66h-108.6V2.9h146.2v19.2Z"/>
      <path d="M525,3.1h143.8v19.3h-124.5v17.8h94v19.3h-94v28.9h124.5v19.3h-143.8V3.1Z"/>
      <path d="M828.5,35.8c0,24.6-18.3,32.5-44.1,35.1l47.1,37.2h-31.2l-45.7-36.1h-50.5v36.1h-19.3V3.1h74.4c22.5,0,69.3,0,69.3,32.7h.2ZM804.9,35.9c0-13.5-34-13.5-47.4-13.5h-53.5v30.1h48.7c53.5,0,52.2-8.8,52.2-16.6Z"/>
      <path d="M849.3,107.9V2.9h19.3v105h-19.3Z"/>
      <path d="M984.9,2.9l75,105h-23.7l-14.8-20.8h-96.4l-14.8,20.8h-23.4L961.5,2.9h23.4ZM1007.4,67.7l-34.3-48.1-34.3,48.1h68.7Z"/>
    </g>
    <g class="st0">
      <path d="M152.7,182.9h22l-73.3,105h-22.3L4.1,182.9h22.2l63.1,87.9,63.3-87.9Z"/>
      <path d="M185.9,183.1h143.8v19.3h-124.5v17.8h94v19.3h-94v28.9h124.5v19.3h-143.8v-104.8Z"/>
      <path d="M477.2,182.9h19.3v105h-20.7l-108.7-86.2v86.2h-19.3v-105h26.7l102.7,81.4v-81.4Z"/>
      <path d="M514.7,183.1h143.8v19.3h-124.5v17.8h94v19.3h-94v28.9h124.5v19.3h-143.8v-104.8Z"/>
      <path d="M819.3,202.1l-109.5,66.4h109.5v19.3h-146.2v-19.6l108.6-66h-108.6v-19.3h146.2v19.2Z"/>
      <path d="M837.3,287.9v-105h19.3v105h-19.3Z"/>
      <path d="M972.9,182.9l75,105h-23.7l-14.8-20.8h-96.4l-14.8,20.8h-23.4l74.8-105h23.4ZM995.4,247.7l-34.3-48.1-34.3,48.1h68.7Z"/>
      <path d="M1195.5,182.9h19.3v105h-20.7l-108.7-86.2v86.2h-19.3v-105h26.7l102.7,81.4v-81.4Z"/>
      <path d="M1331.3,182.9l75,105h-23.7l-14.8-20.8h-96.4l-14.8,20.8h-23.4l74.8-105h23.4ZM1353.8,247.7l-34.3-48.1-34.3,48.1h68.7Z"/>
    </g>
  </g>
  <g class="st0">
    <g class="st0">
      <path d="M61.9,382.9H9.1v-15.4h75.1v13.5l-56.1,78.1h57.9v15.4H6.4v-15.3l55.5-76.3Z"/>
      <path d="M142.2,477c-29.5,0-42.1-18.6-42.1-43.5v-66.1h18.1v66.1c0,15.6,7.2,28,24,28s23.5-12.4,23.5-28v-66.1h18.1v66.1c0,24.3-12.3,43.5-41.7,43.5ZM120.9,342.5h15v16.3h-15v-16.3ZM148.2,342.5h14.8v16.3h-14.8v-16.3Z"/>
      <path d="M205.5,367.4h40.2c24.4,0,37.8,12.9,37.8,30.4s-10,25.2-21.6,28.2c10,2.9,13.5,11,17.2,23.4,3,9.6,5.2,17.1,9.1,23.8v1.2h-18.7c-3.4-6.8-6-16.2-9.3-25-3.6-9.9-8.2-16.9-21.3-16.9h-15.3v42h-18.1v-107.1ZM244.8,417.5c13.5,0,20.7-7.2,20.7-18.3s-6-16.9-21.3-16.9h-20.5v35.2h21.1Z"/>
      <path d="M322.2,367.4v107.1h-18.1v-107.1h18.1Z"/>
      <path d="M392.7,476.5c-33.4,0-54.3-23.7-54.3-55.5s21-55.5,54.6-55.5,42.6,14,49.3,34.8h-18.1c-5.5-12.9-15.4-19.5-31.2-19.5-22.8,0-36.4,17.8-36.4,40.2s13.5,40.2,36.4,40.2,27-7.8,31.3-19.5h17.8c-4.8,19.9-22.5,34.8-49.5,34.8Z"/>
      <path d="M544,367.4v107.1h-18.1v-46h-47.2v46h-18.1v-107.1h18.1v45.7h47.2v-45.7h18.1Z"/>
    </g>
  </g>
</svg>