<?xml version="1.0" encoding="UTF-8"?>
<svg id="Ebene_1" xmlns="http://www.w3.org/2000/svg" version="1.1" viewBox="0 0 1080 1920">
  <!-- Generator: Adobe Illustrator 29.5.1, SVG Export Plug-In . SVG Version: 2.1.0 Build 141)  -->
  <defs>
    <style>
      .st0, .st1 {
        fill: #966969;
      }

      .st1 {
        opacity: .4;
      }

      .st2 {
        fill: #c8323c;
      }

      .st3 {
        fill: #fff;
      }

      .st4 {
        fill: #64b44b;
      }
    </style>
  </defs>
  <rect class="st1" width="1080" height="1920"/>
  <rect class="st2" y="1436.24" width="500.67" height="33.38"/>
  <rect class="st3" y="1502.98" width="636.06" height="33.38"/>
  <rect class="st4" y="1569.67" width="500.67" height="33.38"/>
  <g>
    <path class="st0" d="M120.51,725.38c11.14,0,33.64,0,33.64,16.52s-15,18.04-33.11,18.19h-27.66v18.26h-9.77v-53.04h36.83l.08.08ZM144.46,741.98c0-6.82-17.2-6.82-23.94-6.82h-27.05v15.23h24.63c27.05,0,26.37-4.47,26.37-8.41Z"/>
    <path class="st0" d="M203.18,725.3l37.89,53.04h-11.97l-7.5-10.53h-48.72l-7.5,10.53h-11.82l37.81-53.04h11.82ZM214.55,758.04l-17.35-24.32-17.35,24.32h34.71Z"/>
    <path class="st0" d="M314.2,762.51c0,15.84-22.58,15.84-32.2,15.84-13.94,0-21.82-1.06-28.11-3.71-6.9-2.96-11.14-6.14-11.75-13.34h9.78c.3,1.52,1.44,2.58,5.76,4.4,4.85,2.05,11.9,2.88,24.25,2.88,18.56,0,22.43-3.33,22.43-6.14,0-4.85-6.97-5.83-19.1-5.91h-8.03c-13.34.15-25.84-.3-32.13-6.52-2.35-2.35-3.56-5.38-3.56-8.71,0-14.7,18.11-15.91,39.93-15.91,14.55,0,24.32,2.96,29.1,8.71,2.35,2.88,2.96,5.68,3.03,7.58h-9.85c-.08-.38-.3-.91-.91-1.59-1.36-1.44-6.21-4.85-21.29-4.85-30.16,0-30.16,4.17-30.16,6.14,0,.76.23,1.21.76,1.74,3.94,3.86,18.26,3.79,25.16,3.71h8.11c10.08.08,28.79.23,28.79,15.69Z"/>
    <path class="st0" d="M317.76,725.3h76.53v9.78h-33.42v43.27h-9.77v-43.27h-33.42l.08-9.78Z"/>
    <path class="st0" d="M440.9,725.3l37.89,53.04h-11.97l-7.5-10.53h-48.72l-7.5,10.53h-11.82l37.81-53.04h11.82ZM452.27,758.04l-17.35-24.32-17.35,24.32h34.71Z"/>
    <path class="st0" d="M130.21,837.46h35.08v4.85c0,12.88-10.99,22.88-28.64,26.07-3.33.61-6.82.91-10.31.91-13.03,0-26.45-4.02-34.48-10.76-5.38-4.47-8.18-9.93-8.18-15.84,0-14.85,18.87-26.52,42.96-26.52,12.43,0,24.17,3.18,32.2,8.79l-5.61,8.03c-6.44-4.47-16.14-7.05-26.6-7.05-15.69,0-33.19,6.9-33.19,16.75,0,2.96,1.59,5.76,4.7,8.33,8.03,6.74,23.87,10.08,36.83,7.73,9.93-1.82,16.9-6.06,19.47-11.59h-24.17l-.08-9.7Z"/>
    <path class="st0" d="M172.57,816.32h72.67v9.78h-62.89v9.02h47.51v9.78h-47.51v14.62h62.89v9.78h-72.67v-52.97Z"/>
    <path class="st0" d="M325.87,832.83c0,12.43-9.24,16.44-22.28,17.73l23.79,18.79h-15.76l-23.11-18.26h-25.54v18.26h-9.78v-53.04h37.58c11.37,0,35.01,0,35.01,16.52h.08ZM313.97,832.91c0-6.82-17.2-6.82-23.94-6.82h-27.05v15.23h24.63c27.05,0,26.37-4.47,26.37-8.41Z"/>
    <path class="st0" d="M336.41,869.28v-53.04h9.77v53.04h-9.77Z"/>
    <path class="st0" d="M398.16,859.51c10.53,0,20.31-2.58,26.75-7.05l5.61,7.96c-8.11,5.61-19.85,8.87-32.28,8.87-24.1,0-42.96-11.67-42.96-26.52s18.87-26.52,42.96-26.52c12.43,0,24.17,3.18,32.2,8.79l-5.61,8.03c-6.44-4.47-16.14-7.05-26.6-7.05-15.69,0-33.19,6.9-33.19,16.75s17.5,16.75,33.19,16.75h-.08Z"/>
    <path class="st0" d="M503.04,816.24h9.77v53.04h-9.77v-24.17h-53.57v24.1h-9.77v-52.97h9.77v19.17h53.57v-19.17Z"/>
    <path class="st0" d="M522.06,816.24h76.53v9.78h-33.42v43.27h-9.78v-43.27h-33.42l.08-9.78Z"/>
    <path class="st0" d="M604.29,816.32h72.67v9.78h-62.89v9.02h47.51v9.78h-47.51v14.62h62.89v9.78h-72.67v-52.97Z"/>
  </g>
  <g>
    <path class="st0" d="M97.06,1012.78c-2.39,0-4.46-.4-6.23-1.2-1.77-.8-3.14-1.91-4.12-3.34-.98-1.43-1.52-3.11-1.63-5.04h4.22c.09,1.3.48,2.39,1.19,3.26.7.87,1.63,1.52,2.78,1.96,1.15.43,2.41.65,3.79.65,1.51,0,2.85-.24,4.03-.72s2.11-1.16,2.79-2.03c.68-.87,1.02-1.89,1.02-3.04,0-1.02-.28-1.87-.83-2.54-.56-.67-1.32-1.22-2.3-1.66-.97-.44-2.09-.83-3.35-1.17l-3.89-1.08c-2.8-.76-4.93-1.83-6.39-3.22-1.46-1.38-2.2-3.17-2.2-5.35,0-1.86.49-3.48,1.47-4.87.98-1.38,2.32-2.46,4.02-3.23,1.7-.77,3.62-1.15,5.76-1.15s4.1.39,5.77,1.17c1.66.78,2.97,1.85,3.92,3.21s1.46,2.92,1.52,4.66h-4.04c-.18-1.7-.93-3.02-2.26-3.96s-3.01-1.41-5.03-1.41c-1.41,0-2.64.23-3.71.7s-1.9,1.11-2.49,1.91c-.59.81-.89,1.73-.89,2.77s.33,1.95.98,2.63c.65.68,1.46,1.23,2.44,1.64.97.41,1.94.75,2.91,1.01l3.36.9c1.04.26,2.1.62,3.19,1.07,1.08.45,2.09,1.01,3.01,1.7s1.67,1.55,2.24,2.57c.57,1.03.86,2.26.86,3.69,0,1.82-.47,3.44-1.42,4.88-.95,1.44-2.3,2.57-4.08,3.39-1.77.83-3.9,1.24-6.39,1.24Z"/>
    <path class="st0" d="M116.59,983.82c-.73,0-1.37-.26-1.9-.77-.54-.51-.8-1.13-.8-1.85s.27-1.33.8-1.83c.53-.51,1.17-.76,1.9-.76s1.39.25,1.92.76c.53.5.8,1.12.8,1.83s-.27,1.33-.8,1.85c-.54.51-1.18.77-1.92.77ZM114.64,1012.21v-24.26h3.91v24.26h-3.91Z"/>
    <path class="st0" d="M129.09,997.75v14.46h-3.91v-24.26h3.76l.02,5.87h-.66c.75-2.23,1.81-3.82,3.19-4.78,1.38-.96,3-1.44,4.86-1.44,1.64,0,3.09.34,4.34,1.02,1.25.68,2.23,1.71,2.94,3.08.71,1.37,1.07,3.09,1.07,5.17v15.34h-3.91v-15.03c0-1.9-.49-3.39-1.47-4.45-.98-1.06-2.33-1.59-4.04-1.59-1.17,0-2.22.25-3.15.75s-1.67,1.24-2.21,2.22-.81,2.2-.81,3.65Z"/>
    <path class="st0" d="M160.47,1012.71c-2.04,0-3.83-.52-5.38-1.55-1.55-1.03-2.77-2.49-3.64-4.37-.87-1.88-1.31-4.11-1.31-6.67s.44-4.76,1.31-6.64,2.09-3.33,3.65-4.35c1.56-1.03,3.35-1.54,5.37-1.54,1.46,0,2.67.24,3.6.71.94.48,1.68,1.04,2.24,1.68.56.65,1,1.24,1.32,1.78h.24v-12.3h3.91v32.74h-3.78v-3.74h-.35c-.34.56-.79,1.17-1.36,1.82-.57.66-1.33,1.23-2.26,1.7-.94.48-2.12.71-3.56.71ZM161.04,1009.22c1.48,0,2.74-.38,3.77-1.15,1.03-.77,1.82-1.84,2.36-3.21.54-1.37.81-2.96.81-4.76s-.27-3.38-.8-4.72-1.32-2.4-2.35-3.15c-1.03-.75-2.3-1.13-3.79-1.13s-2.76.39-3.79,1.16c-1.03.78-1.82,1.84-2.35,3.2-.54,1.35-.8,2.9-.8,4.65s.27,3.3.8,4.68c.53,1.38,1.32,2.46,2.36,3.25s2.3,1.19,3.78,1.19Z"/>
    <path class="st0" d="M197.69,1012.74c-1.55,0-2.96-.29-4.21-.86-1.25-.57-2.25-1.41-2.99-2.53s-1.11-2.47-1.11-4.07c0-1.39.27-2.52.82-3.38.55-.86,1.28-1.55,2.2-2.05.92-.51,1.93-.88,3.05-1.13,1.12-.25,2.25-.45,3.4-.59,1.48-.19,2.67-.34,3.57-.44.9-.1,1.57-.28,2-.52.43-.24.65-.66.65-1.26v-.15c0-.98-.19-1.82-.58-2.53-.39-.7-.96-1.24-1.73-1.62-.76-.37-1.71-.56-2.83-.56s-2.15.18-2.98.54c-.83.36-1.5.82-2.02,1.38-.52.56-.88,1.16-1.09,1.79l-3.8-.99c.5-1.48,1.25-2.67,2.26-3.57,1.01-.9,2.17-1.56,3.48-1.98,1.31-.42,2.66-.63,4.05-.63.94,0,1.93.12,2.99.36,1.05.24,2.05.66,2.98,1.26.93.6,1.69,1.45,2.27,2.56.59,1.11.88,2.53.88,4.27v16.15h-3.85v-3.34h-.22c-.28.57-.72,1.16-1.32,1.76s-1.38,1.1-2.35,1.5c-.97.4-2.15.6-3.54.6ZM198.33,1009.26c1.48,0,2.72-.28,3.71-.85,1-.56,1.75-1.3,2.26-2.21s.77-1.86.77-2.86v-3.29c-.16.18-.49.34-1,.48-.5.15-1.09.28-1.76.4s-1.33.22-1.98.3c-.65.08-1.2.15-1.66.21-.94.12-1.82.32-2.64.6-.82.29-1.48.7-1.98,1.24s-.75,1.27-.75,2.2c0,.82.22,1.51.65,2.08.43.56,1.02.99,1.77,1.27.75.29,1.61.43,2.59.43Z"/>
    <path class="st0" d="M223.97,1012.54c-1.64,0-3.09-.34-4.35-1.02-1.26-.68-2.25-1.71-2.96-3.08-.71-1.37-1.07-3.09-1.07-5.15v-15.34h3.91v15.01c0,1.92.49,3.41,1.48,4.47.99,1.06,2.34,1.59,4.05,1.59,1.16,0,2.2-.25,3.13-.76.93-.5,1.67-1.25,2.21-2.23s.81-2.19.81-3.63v-14.46h3.93v24.26h-3.78v-5.89h.64c-.76,2.26-1.84,3.86-3.23,4.8-1.39.95-2.99,1.42-4.79,1.42Z"/>
    <path class="st0" d="M250.05,1012.74c-1.67,0-3.16-.25-4.48-.76-1.32-.51-2.4-1.26-3.25-2.25s-1.4-2.23-1.65-3.69l3.74-.7c.31,1.36.94,2.37,1.9,3.02.96.65,2.19.98,3.7.98,1.68,0,3.03-.36,4.03-1.09,1-.73,1.5-1.59,1.5-2.6,0-.85-.3-1.55-.91-2.11-.61-.56-1.5-.97-2.67-1.23l-4.02-.97c-2.21-.51-3.86-1.32-4.94-2.43-1.08-1.11-1.63-2.52-1.63-4.23,0-1.39.38-2.62,1.15-3.68.77-1.06,1.83-1.89,3.17-2.49,1.35-.6,2.89-.9,4.61-.9s3.11.26,4.31.79,2.17,1.26,2.91,2.2,1.26,2.02,1.55,3.25l-3.58.72c-.26-.95-.8-1.8-1.62-2.54-.81-.74-2-1.11-3.55-1.11-1.46,0-2.67.34-3.61,1.01-.94.67-1.42,1.52-1.42,2.55,0,.91.33,1.63.99,2.18s1.67.97,3.03,1.3l3.71.88c2.23.53,3.87,1.34,4.93,2.43,1.06,1.09,1.59,2.48,1.59,4.16,0,1.44-.4,2.7-1.21,3.8s-1.92,1.96-3.35,2.58c-1.43.62-3.08.93-4.96.93Z"/>
    <path class="st0" d="M273.28,1012.74c-1.67,0-3.16-.25-4.48-.76-1.32-.51-2.4-1.26-3.25-2.25s-1.4-2.23-1.65-3.69l3.74-.7c.31,1.36.94,2.37,1.9,3.02.96.65,2.19.98,3.7.98,1.68,0,3.03-.36,4.03-1.09,1-.73,1.5-1.59,1.5-2.6,0-.85-.3-1.55-.91-2.11-.61-.56-1.5-.97-2.67-1.23l-4.02-.97c-2.21-.51-3.86-1.32-4.94-2.43-1.08-1.11-1.63-2.52-1.63-4.23,0-1.39.38-2.62,1.15-3.68.77-1.06,1.83-1.89,3.17-2.49,1.35-.6,2.89-.9,4.61-.9s3.11.26,4.31.79,2.17,1.26,2.91,2.2,1.26,2.02,1.55,3.25l-3.58.72c-.26-.95-.8-1.8-1.62-2.54-.81-.74-2-1.11-3.55-1.11-1.46,0-2.67.34-3.61,1.01-.94.67-1.42,1.52-1.42,2.55,0,.91.33,1.63.99,2.18s1.67.97,3.03,1.3l3.71.88c2.23.53,3.87,1.34,4.93,2.43,1.06,1.09,1.59,2.48,1.59,4.16,0,1.44-.4,2.7-1.21,3.8s-1.92,1.96-3.35,2.58c-1.43.62-3.08.93-4.96.93Z"/>
    <path class="st0" d="M298.13,1012.74c-2.21,0-4.15-.52-5.81-1.57-1.66-1.05-2.96-2.52-3.89-4.41s-1.4-4.07-1.4-6.55.46-4.73,1.4-6.62c.93-1.9,2.23-3.37,3.89-4.42,1.66-1.05,3.6-1.57,5.81-1.57,1.22,0,2.36.16,3.43.48s2.04.79,2.9,1.41,1.6,1.36,2.22,2.23c.62.87,1.07,1.86,1.36,2.96l-3.8.83c-.16-.64-.42-1.23-.78-1.77-.36-.54-.79-1-1.31-1.4s-1.11-.7-1.78-.92-1.42-.33-2.24-.33c-1.6,0-2.92.41-3.98,1.24-1.05.83-1.85,1.93-2.37,3.31s-.79,2.9-.79,4.57.26,3.15.79,4.52c.53,1.37,1.31,2.46,2.36,3.28,1.05.82,2.38,1.23,3.99,1.23.82,0,1.57-.11,2.25-.33.68-.22,1.29-.53,1.81-.94s.97-.9,1.32-1.46c.35-.56.62-1.17.79-1.83l3.8.84c-.29,1.11-.75,2.11-1.36,2.99s-1.36,1.64-2.23,2.27c-.87.64-1.85,1.12-2.93,1.46-1.08.34-2.23.51-3.45.51Z"/>
    <path class="st0" d="M317.36,997.75v14.46h-3.91v-32.74h3.91v14.35h-.79c.75-2.23,1.81-3.82,3.19-4.78,1.38-.96,3-1.44,4.86-1.44,1.64,0,3.09.34,4.35,1.02,1.26.68,2.24,1.71,2.96,3.08.71,1.37,1.07,3.09,1.07,5.17v15.34h-3.93v-15.03c0-1.9-.49-3.39-1.47-4.45-.98-1.06-2.33-1.59-4.04-1.59-1.17,0-2.22.25-3.15.75s-1.67,1.24-2.21,2.22-.81,2.2-.81,3.65Z"/>
    <path class="st0" d="M343.53,979.47v32.74h-3.91v-32.74h3.91Z"/>
    <path class="st0" d="M352.12,983.82c-.73,0-1.37-.26-1.9-.77-.54-.51-.8-1.13-.8-1.85s.27-1.33.8-1.83c.53-.51,1.17-.76,1.9-.76s1.39.25,1.92.76c.53.5.8,1.12.8,1.83s-.27,1.33-.8,1.85c-.54.51-1.18.77-1.92.77ZM350.16,1012.21v-24.26h3.91v24.26h-3.91Z"/>
    <path class="st0" d="M370.86,1012.74c-2.34,0-4.37-.53-6.06-1.58s-3-2.52-3.91-4.39-1.36-4.05-1.36-6.53.45-4.67,1.35-6.57c.9-1.9,2.18-3.39,3.82-4.46,1.65-1.07,3.56-1.6,5.75-1.6,1.38,0,2.7.23,3.98.69,1.27.46,2.42,1.19,3.43,2.17,1.01.99,1.81,2.26,2.4,3.81s.88,3.41.88,5.56v1.52h-19.07v-3.3h16.94l-1.78,1.19c0-1.6-.26-3.01-.78-4.24s-1.28-2.19-2.29-2.89c-1-.7-2.24-1.04-3.7-1.04s-2.7.35-3.75,1.05c-1.05.7-1.85,1.64-2.41,2.8-.56,1.16-.83,2.44-.83,3.83v2.07c0,1.77.3,3.29.91,4.55.61,1.26,1.47,2.22,2.59,2.88,1.12.66,2.43.99,3.92.99,1,0,1.89-.15,2.69-.44.8-.29,1.48-.72,2.05-1.3s1-1.27,1.3-2.11l3.8.83c-.37,1.27-1,2.4-1.91,3.38s-2.04,1.75-3.4,2.3c-1.35.55-2.87.82-4.56.82Z"/>
    <path class="st0" d="M394.77,1012.74c-1.67,0-3.16-.25-4.48-.76-1.32-.51-2.4-1.26-3.25-2.25s-1.4-2.23-1.65-3.69l3.74-.7c.31,1.36.94,2.37,1.9,3.02.96.65,2.19.98,3.7.98,1.68,0,3.03-.36,4.03-1.09,1-.73,1.5-1.59,1.5-2.6,0-.85-.3-1.55-.91-2.11-.61-.56-1.5-.97-2.67-1.23l-4.02-.97c-2.21-.51-3.86-1.32-4.94-2.43-1.08-1.11-1.63-2.52-1.63-4.23,0-1.39.38-2.62,1.15-3.68.77-1.06,1.83-1.89,3.17-2.49,1.35-.6,2.89-.9,4.61-.9s3.11.26,4.31.79,2.17,1.26,2.91,2.2,1.26,2.02,1.55,3.25l-3.58.72c-.26-.95-.8-1.8-1.62-2.54-.81-.74-2-1.11-3.55-1.11-1.46,0-2.67.34-3.61,1.01-.94.67-1.42,1.52-1.42,2.55,0,.91.33,1.63.99,2.18s1.67.97,3.03,1.3l3.71.88c2.23.53,3.87,1.34,4.93,2.43,1.06,1.09,1.59,2.48,1.59,4.16,0,1.44-.4,2.7-1.21,3.8s-1.92,1.96-3.35,2.58c-1.43.62-3.08.93-4.96.93Z"/>
    <path class="st0" d="M417.99,1012.74c-1.67,0-3.16-.25-4.48-.76-1.32-.51-2.4-1.26-3.25-2.25s-1.4-2.23-1.65-3.69l3.74-.7c.31,1.36.94,2.37,1.9,3.02.96.65,2.19.98,3.7.98,1.68,0,3.03-.36,4.03-1.09,1-.73,1.5-1.59,1.5-2.6,0-.85-.3-1.55-.91-2.11-.61-.56-1.5-.97-2.67-1.23l-4.02-.97c-2.21-.51-3.86-1.32-4.94-2.43-1.08-1.11-1.63-2.52-1.63-4.23,0-1.39.38-2.62,1.15-3.68.77-1.06,1.83-1.89,3.17-2.49,1.35-.6,2.89-.9,4.61-.9s3.11.26,4.31.79,2.17,1.26,2.91,2.2,1.26,2.02,1.55,3.25l-3.58.72c-.26-.95-.8-1.8-1.62-2.54-.81-.74-2-1.11-3.55-1.11-1.46,0-2.67.34-3.61,1.01-.94.67-1.42,1.52-1.42,2.55,0,.91.33,1.63.99,2.18s1.67.97,3.03,1.3l3.71.88c2.23.53,3.87,1.34,4.93,2.43,1.06,1.09,1.59,2.48,1.59,4.16,0,1.44-.4,2.7-1.21,3.8s-1.92,1.96-3.35,2.58c-1.43.62-3.08.93-4.96.93Z"/>
    <path class="st0" d="M436.84,979.47v32.74h-3.91v-32.74h3.91Z"/>
    <path class="st0" d="M445.44,983.82c-.73,0-1.37-.26-1.9-.77-.54-.51-.8-1.13-.8-1.85s.27-1.33.8-1.83c.53-.51,1.17-.76,1.9-.76s1.39.25,1.92.76c.53.5.8,1.12.8,1.83s-.27,1.33-.8,1.85c-.54.51-1.18.77-1.92.77ZM443.48,1012.21v-24.26h3.91v24.26h-3.91Z"/>
    <path class="st0" d="M463.94,1012.74c-2.21,0-4.15-.52-5.81-1.57-1.66-1.05-2.96-2.52-3.89-4.41s-1.4-4.07-1.4-6.55.46-4.73,1.4-6.62c.93-1.9,2.23-3.37,3.89-4.42,1.66-1.05,3.6-1.57,5.81-1.57,1.22,0,2.36.16,3.43.48s2.04.79,2.9,1.41,1.6,1.36,2.22,2.23c.62.87,1.07,1.86,1.36,2.96l-3.8.83c-.16-.64-.42-1.23-.78-1.77-.36-.54-.79-1-1.31-1.4s-1.11-.7-1.78-.92-1.42-.33-2.24-.33c-1.6,0-2.92.41-3.98,1.24-1.05.83-1.85,1.93-2.37,3.31s-.79,2.9-.79,4.57.26,3.15.79,4.52c.53,1.37,1.31,2.46,2.36,3.28,1.05.82,2.38,1.23,3.99,1.23.82,0,1.57-.11,2.25-.33.68-.22,1.29-.53,1.81-.94s.97-.9,1.32-1.46c.35-.56.62-1.17.79-1.83l3.8.84c-.29,1.11-.75,2.11-1.36,2.99s-1.36,1.64-2.23,2.27c-.87.64-1.85,1.12-2.93,1.46-1.08.34-2.23.51-3.45.51Z"/>
    <path class="st0" d="M483.16,997.75v14.46h-3.91v-32.74h3.91v14.35h-.79c.75-2.23,1.81-3.82,3.19-4.78,1.38-.96,3-1.44,4.86-1.44,1.64,0,3.09.34,4.35,1.02,1.26.68,2.24,1.71,2.96,3.08.71,1.37,1.07,3.09,1.07,5.17v15.34h-3.93v-15.03c0-1.9-.49-3.39-1.47-4.45-.98-1.06-2.33-1.59-4.04-1.59-1.17,0-2.22.25-3.15.75s-1.67,1.24-2.21,2.22-.81,2.2-.81,3.65Z"/>
    <path class="st0" d="M519.72,983.82c-.73,0-1.37-.26-1.9-.77-.54-.51-.8-1.13-.8-1.85s.27-1.33.8-1.83c.53-.51,1.17-.76,1.9-.76s1.39.25,1.92.76c.53.5.8,1.12.8,1.83s-.27,1.33-.8,1.85c-.54.51-1.18.77-1.92.77ZM517.77,1012.21v-24.26h3.91v24.26h-3.91Z"/>
    <path class="st0" d="M532.23,997.75v14.46h-3.91v-24.26h3.76l.02,5.87h-.66c.75-2.23,1.81-3.82,3.19-4.78,1.38-.96,3-1.44,4.86-1.44,1.64,0,3.09.34,4.34,1.02,1.25.68,2.23,1.71,2.94,3.08.71,1.37,1.07,3.09,1.07,5.17v15.34h-3.91v-15.03c0-1.9-.49-3.39-1.47-4.45-.98-1.06-2.33-1.59-4.04-1.59-1.17,0-2.22.25-3.15.75s-1.67,1.24-2.21,2.22-.81,2.2-.81,3.65Z"/>
    <path class="st0" d="M575.18,1012.54c-1.64,0-3.09-.34-4.35-1.02-1.26-.68-2.25-1.71-2.96-3.08-.71-1.37-1.07-3.09-1.07-5.15v-15.34h3.91v15.01c0,1.92.5,3.41,1.48,4.47.99,1.06,2.34,1.59,4.05,1.59,1.16,0,2.2-.25,3.13-.76.93-.5,1.67-1.25,2.21-2.23s.81-2.19.81-3.63v-14.46h3.93v24.26h-3.78v-5.89h.64c-.76,2.26-1.84,3.86-3.23,4.8-1.39.95-2.99,1.42-4.79,1.42Z"/>
    <path class="st0" d="M596.89,997.75v14.46h-3.91v-24.26h3.76l.02,5.87h-.66c.75-2.23,1.81-3.82,3.19-4.78,1.38-.96,3-1.44,4.86-1.44,1.64,0,3.09.34,4.34,1.02,1.25.68,2.23,1.71,2.94,3.08.71,1.37,1.07,3.09,1.07,5.17v15.34h-3.91v-15.03c0-1.9-.49-3.39-1.47-4.45-.98-1.06-2.33-1.59-4.04-1.59-1.17,0-2.22.25-3.15.75-.93.5-1.67,1.24-2.21,2.22s-.81,2.2-.81,3.65Z"/>
    <path class="st0" d="M627.41,1012.74c-1.67,0-3.16-.25-4.48-.76-1.32-.51-2.4-1.26-3.25-2.25s-1.4-2.23-1.65-3.69l3.74-.7c.31,1.36.94,2.37,1.9,3.02.96.65,2.19.98,3.7.98,1.68,0,3.03-.36,4.03-1.09,1-.73,1.5-1.59,1.5-2.6,0-.85-.3-1.55-.91-2.11-.61-.56-1.5-.97-2.67-1.23l-4.02-.97c-2.21-.51-3.86-1.32-4.94-2.43-1.08-1.11-1.63-2.52-1.63-4.23,0-1.39.38-2.62,1.15-3.68.77-1.06,1.83-1.89,3.17-2.49,1.35-.6,2.89-.9,4.61-.9s3.11.26,4.31.79,2.17,1.26,2.91,2.2c.74.94,1.26,2.02,1.55,3.25l-3.58.72c-.26-.95-.8-1.8-1.62-2.54-.81-.74-2-1.11-3.55-1.11-1.46,0-2.67.34-3.61,1.01-.94.67-1.42,1.52-1.42,2.55,0,.91.33,1.63.99,2.18.66.54,1.67.97,3.03,1.3l3.71.88c2.23.53,3.87,1.34,4.93,2.43,1.06,1.09,1.59,2.48,1.59,4.16,0,1.44-.4,2.7-1.21,3.8s-1.92,1.96-3.35,2.58c-1.43.62-3.08.93-4.96.93Z"/>
    <path class="st0" d="M652.5,1012.74c-2.34,0-4.37-.53-6.06-1.58s-3-2.52-3.91-4.39c-.91-1.88-1.36-4.05-1.36-6.53s.45-4.67,1.35-6.57c.9-1.9,2.18-3.39,3.82-4.46,1.65-1.07,3.56-1.6,5.75-1.6,1.38,0,2.7.23,3.98.69,1.27.46,2.42,1.19,3.43,2.17,1.01.99,1.81,2.26,2.39,3.81s.88,3.41.88,5.56v1.52h-19.07v-3.3h16.94l-1.78,1.19c0-1.6-.26-3.01-.78-4.24-.52-1.23-1.28-2.19-2.29-2.89-1-.7-2.24-1.04-3.7-1.04s-2.7.35-3.75,1.05c-1.05.7-1.85,1.64-2.41,2.8-.56,1.16-.83,2.44-.83,3.83v2.07c0,1.77.3,3.29.91,4.55.61,1.26,1.47,2.22,2.59,2.88,1.12.66,2.43.99,3.92.99,1,0,1.89-.15,2.69-.44.8-.29,1.48-.72,2.05-1.3s1-1.27,1.3-2.11l3.8.83c-.37,1.27-1,2.4-1.91,3.38-.91.98-2.04,1.75-3.4,2.3-1.35.55-2.88.82-4.56.82Z"/>
    <path class="st0" d="M668.13,1012.21v-24.26h3.76v3.74h.22c.45-1.23,1.24-2.22,2.35-2.97,1.11-.75,2.39-1.12,3.84-1.12.31,0,.65,0,1.03.02.38.02.67.03.88.04v3.93c-.12-.03-.41-.07-.87-.13-.46-.06-.96-.09-1.48-.09-1.1,0-2.09.23-2.98.7-.89.47-1.58,1.13-2.09,1.98-.51.85-.76,1.85-.76,3.01v15.14h-3.91Z"/>
    <path class="st0" d="M693.99,1012.74c-2.34,0-4.37-.53-6.06-1.58s-3-2.52-3.91-4.39c-.91-1.88-1.36-4.05-1.36-6.53s.45-4.67,1.35-6.57c.9-1.9,2.18-3.39,3.82-4.46,1.65-1.07,3.56-1.6,5.75-1.6,1.38,0,2.7.23,3.98.69,1.27.46,2.42,1.19,3.43,2.17,1.01.99,1.81,2.26,2.39,3.81s.88,3.41.88,5.56v1.52h-19.07v-3.3h16.94l-1.78,1.19c0-1.6-.26-3.01-.78-4.24-.52-1.23-1.28-2.19-2.29-2.89-1-.7-2.24-1.04-3.7-1.04s-2.7.35-3.75,1.05c-1.05.7-1.85,1.64-2.41,2.8-.56,1.16-.83,2.44-.83,3.83v2.07c0,1.77.3,3.29.91,4.55.61,1.26,1.47,2.22,2.59,2.88,1.12.66,2.43.99,3.92.99,1,0,1.89-.15,2.69-.44.8-.29,1.48-.72,2.05-1.3s1-1.27,1.3-2.11l3.8.83c-.37,1.27-1,2.4-1.91,3.38-.91.98-2.04,1.75-3.4,2.3-1.35.55-2.88.82-4.56.82Z"/>
    <path class="st0" d="M709.61,1012.21v-24.26h3.76v3.74h.22c.45-1.23,1.24-2.22,2.35-2.97,1.11-.75,2.39-1.12,3.84-1.12.31,0,.65,0,1.03.02.38.02.67.03.88.04v3.93c-.12-.03-.41-.07-.87-.13-.46-.06-.96-.09-1.48-.09-1.1,0-2.09.23-2.98.7-.89.47-1.58,1.13-2.09,1.98-.51.85-.76,1.85-.76,3.01v15.14h-3.91Z"/>
    <path class="st0" d="M738.83,1012.21v-32.74h11.32c2.49,0,4.56.45,6.22,1.35,1.65.9,2.89,2.13,3.71,3.68s1.23,3.31,1.23,5.27-.41,3.73-1.24,5.29c-.83,1.57-2.07,2.81-3.72,3.71-1.66.91-3.73,1.36-6.22,1.36h-8.28v-3.65h8.15c1.68,0,3.06-.29,4.12-.86,1.06-.57,1.84-1.37,2.34-2.38.5-1.02.75-2.18.75-3.48s-.25-2.46-.75-3.46c-.5-1-1.28-1.79-2.35-2.36s-2.45-.86-4.15-.86h-6.99v29.11h-4.13Z"/>
    <path class="st0" d="M768.78,983.82c-.73,0-1.37-.26-1.9-.77-.54-.51-.8-1.13-.8-1.85s.27-1.33.8-1.83c.53-.51,1.17-.76,1.9-.76s1.39.25,1.92.76c.53.5.8,1.12.8,1.83s-.27,1.33-.8,1.85c-.54.51-1.18.77-1.92.77ZM766.83,1012.21v-24.26h3.91v24.26h-3.91Z"/>
    <path class="st0" d="M776.67,1012.21v-2.92l13.54-17.54v-.22h-13.21v-3.58h18.19v3.1l-13.21,17.36v.2h13.58v3.6h-18.9Z"/>
    <path class="st0" d="M800.78,1012.21v-2.92l13.54-17.54v-.22h-13.21v-3.58h18.19v3.1l-13.21,17.36v.2h13.58v3.6h-18.9Z"/>
    <path class="st0" d="M835.08,1012.74c-2.34,0-4.37-.53-6.06-1.58s-3-2.52-3.91-4.39c-.91-1.88-1.36-4.05-1.36-6.53s.45-4.67,1.35-6.57c.9-1.9,2.18-3.39,3.82-4.46,1.65-1.07,3.56-1.6,5.75-1.6,1.38,0,2.7.23,3.98.69,1.27.46,2.42,1.19,3.43,2.17,1.01.99,1.81,2.26,2.39,3.81s.88,3.41.88,5.56v1.52h-19.07v-3.3h16.94l-1.78,1.19c0-1.6-.26-3.01-.78-4.24-.52-1.23-1.28-2.19-2.29-2.89-1-.7-2.24-1.04-3.7-1.04s-2.7.35-3.75,1.05c-1.05.7-1.85,1.64-2.41,2.8-.56,1.16-.83,2.44-.83,3.83v2.07c0,1.77.3,3.29.91,4.55.61,1.26,1.47,2.22,2.59,2.88,1.12.66,2.43.99,3.92.99,1,0,1.89-.15,2.69-.44.8-.29,1.48-.72,2.05-1.3s1-1.27,1.3-2.11l3.8.83c-.37,1.27-1,2.4-1.91,3.38-.91.98-2.04,1.75-3.4,2.3-1.35.55-2.88.82-4.56.82Z"/>
    <path class="st0" d="M850.7,1012.21v-24.26h3.76v3.74h.22c.45-1.23,1.24-2.22,2.35-2.97,1.11-.75,2.39-1.12,3.84-1.12.31,0,.65,0,1.03.02.38.02.67.03.88.04v3.93c-.12-.03-.41-.07-.87-.13-.46-.06-.96-.09-1.48-.09-1.1,0-2.09.23-2.98.7-.89.47-1.58,1.13-2.09,1.98-.51.85-.76,1.85-.76,3.01v15.14h-3.91Z"/>
    <path class="st0" d="M869.4,983.82c-.73,0-1.37-.26-1.9-.77-.54-.51-.8-1.13-.8-1.85s.27-1.33.8-1.83c.53-.51,1.17-.76,1.9-.76s1.39.25,1.92.76c.53.5.8,1.12.8,1.83s-.27,1.33-.8,1.85c-.54.51-1.18.77-1.92.77ZM867.44,1012.21v-24.26h3.91v24.26h-3.91Z"/>
    <path class="st0" d="M884.91,1012.74c-1.55,0-2.96-.29-4.21-.86-1.25-.57-2.25-1.41-2.99-2.53-.74-1.11-1.11-2.47-1.11-4.07,0-1.39.27-2.52.82-3.38.55-.86,1.28-1.55,2.2-2.05.92-.51,1.93-.88,3.05-1.13,1.12-.25,2.25-.45,3.4-.59,1.48-.19,2.67-.34,3.57-.44.9-.1,1.57-.28,2-.52.43-.24.65-.66.65-1.26v-.15c0-.98-.19-1.82-.58-2.53-.39-.7-.96-1.24-1.73-1.62-.76-.37-1.71-.56-2.83-.56s-2.15.18-2.98.54c-.83.36-1.5.82-2.02,1.38-.52.56-.88,1.16-1.09,1.79l-3.8-.99c.5-1.48,1.25-2.67,2.26-3.57,1.01-.9,2.17-1.56,3.48-1.98,1.31-.42,2.66-.63,4.05-.63.94,0,1.93.12,2.99.36,1.05.24,2.05.66,2.98,1.26.93.6,1.69,1.45,2.27,2.56.58,1.11.88,2.53.88,4.27v16.15h-3.85v-3.34h-.22c-.28.57-.72,1.16-1.32,1.76s-1.38,1.1-2.35,1.5c-.97.4-2.15.6-3.54.6ZM885.55,1009.26c1.48,0,2.72-.28,3.71-.85,1-.56,1.75-1.3,2.26-2.21.51-.91.77-1.86.77-2.86v-3.29c-.16.18-.49.34-1,.48-.5.15-1.09.28-1.76.4-.67.12-1.33.22-1.98.3-.65.08-1.21.15-1.66.21-.94.12-1.82.32-2.64.6-.82.29-1.48.7-1.98,1.24s-.75,1.27-.75,2.2c0,.82.22,1.51.65,2.08.43.56,1.02.99,1.77,1.27.75.29,1.61.43,2.59.43Z"/>
    <path class="st0" d="M95.74,1066.21l-12.04-32.74h4.35l6.94,19.49c.4,1.1.89,2.57,1.48,4.42.59,1.85,1.3,4.13,2.12,6.86h-.88c.81-2.77,1.5-5.06,2.09-6.89.59-1.82,1.07-3.28,1.45-4.38l6.79-19.49h4.35l-11.91,32.74h-4.75Z"/>
    <path class="st0" d="M124.39,1066.74c-2.34,0-4.37-.53-6.06-1.58s-3-2.52-3.91-4.39-1.36-4.05-1.36-6.53.45-4.67,1.35-6.57c.9-1.9,2.18-3.39,3.82-4.46,1.65-1.07,3.56-1.6,5.75-1.6,1.38,0,2.7.23,3.98.69,1.27.46,2.42,1.19,3.43,2.17,1.01.99,1.81,2.26,2.4,3.81s.88,3.41.88,5.56v1.52h-19.07v-3.3h16.94l-1.78,1.19c0-1.6-.26-3.01-.78-4.24s-1.28-2.19-2.29-2.89c-1-.7-2.24-1.04-3.7-1.04s-2.7.35-3.75,1.05c-1.05.7-1.85,1.64-2.41,2.8-.56,1.16-.83,2.44-.83,3.83v2.07c0,1.77.3,3.29.91,4.55.61,1.26,1.47,2.22,2.59,2.88,1.12.66,2.43.99,3.92.99,1,0,1.89-.15,2.69-.44.8-.29,1.48-.72,2.05-1.3s1-1.27,1.3-2.11l3.8.83c-.37,1.27-1,2.4-1.91,3.38s-2.04,1.75-3.4,2.3c-1.35.55-2.87.82-4.56.82Z"/>
    <path class="st0" d="M143.93,1051.75v14.46h-3.91v-24.26h3.76l.02,5.87h-.66c.75-2.23,1.81-3.82,3.19-4.78,1.38-.96,3-1.44,4.86-1.44,1.64,0,3.09.34,4.34,1.02,1.25.68,2.23,1.71,2.94,3.08.71,1.37,1.07,3.09,1.07,5.17v15.34h-3.91v-15.03c0-1.9-.49-3.39-1.47-4.45-.98-1.06-2.33-1.59-4.04-1.59-1.17,0-2.22.25-3.15.75s-1.67,1.24-2.21,2.22-.81,2.2-.81,3.65Z"/>
    <path class="st0" d="M176.31,1066.74c-2.34,0-4.37-.53-6.06-1.58s-3-2.52-3.91-4.39-1.36-4.05-1.36-6.53.45-4.67,1.35-6.57c.9-1.9,2.18-3.39,3.82-4.46,1.65-1.07,3.56-1.6,5.75-1.6,1.38,0,2.7.23,3.98.69,1.27.46,2.42,1.19,3.43,2.17,1.01.99,1.81,2.26,2.4,3.81s.88,3.41.88,5.56v1.52h-19.07v-3.3h16.94l-1.78,1.19c0-1.6-.26-3.01-.78-4.24s-1.28-2.19-2.29-2.89c-1-.7-2.24-1.04-3.7-1.04s-2.7.35-3.75,1.05c-1.05.7-1.85,1.64-2.41,2.8-.56,1.16-.83,2.44-.83,3.83v2.07c0,1.77.3,3.29.91,4.55.61,1.26,1.47,2.22,2.59,2.88,1.12.66,2.43.99,3.92.99,1,0,1.89-.15,2.69-.44.8-.29,1.48-.72,2.05-1.3s1-1.27,1.3-2.11l3.8.83c-.37,1.27-1,2.4-1.91,3.38s-2.04,1.75-3.4,2.3c-1.35.55-2.87.82-4.56.82Z"/>
    <path class="st0" d="M190.57,1066.21v-2.92l13.54-17.54v-.22h-13.21v-3.58h18.19v3.1l-13.21,17.36v.2h13.58v3.6h-18.9Z"/>
    <path class="st0" d="M217.34,1037.82c-.73,0-1.37-.26-1.9-.77-.54-.51-.8-1.13-.8-1.85s.27-1.33.8-1.83c.53-.51,1.17-.76,1.9-.76s1.39.25,1.92.76c.53.5.8,1.12.8,1.83s-.27,1.33-.8,1.85c-.54.51-1.18.77-1.92.77ZM215.38,1066.21v-24.26h3.91v24.26h-3.91Z"/>
    <path class="st0" d="M232.85,1066.74c-1.55,0-2.96-.29-4.21-.86-1.25-.57-2.25-1.41-2.99-2.53s-1.11-2.47-1.11-4.07c0-1.39.27-2.52.82-3.38.55-.86,1.28-1.55,2.2-2.05.92-.51,1.93-.88,3.05-1.13,1.12-.25,2.25-.45,3.4-.59,1.48-.19,2.67-.34,3.57-.44.9-.1,1.57-.28,2-.52.43-.24.65-.66.65-1.26v-.15c0-.98-.19-1.82-.58-2.53-.39-.7-.96-1.24-1.73-1.62-.76-.37-1.71-.56-2.83-.56s-2.15.18-2.98.54c-.83.36-1.5.82-2.02,1.38-.52.56-.88,1.16-1.09,1.79l-3.8-.99c.5-1.48,1.25-2.67,2.26-3.57,1.01-.9,2.17-1.56,3.48-1.98,1.31-.42,2.66-.63,4.05-.63.94,0,1.93.12,2.99.36,1.05.24,2.05.66,2.98,1.26.93.6,1.69,1.45,2.27,2.56.59,1.11.88,2.53.88,4.27v16.15h-3.85v-3.34h-.22c-.28.57-.72,1.16-1.32,1.76s-1.38,1.1-2.35,1.5c-.97.4-2.15.6-3.54.6ZM233.49,1063.26c1.48,0,2.72-.28,3.71-.85,1-.56,1.75-1.3,2.26-2.21s.77-1.86.77-2.86v-3.29c-.16.18-.49.34-1,.48-.5.15-1.09.28-1.76.4s-1.33.22-1.98.3c-.65.08-1.2.15-1.66.21-.94.12-1.82.32-2.64.6-.82.29-1.48.7-1.98,1.24s-.75,1.27-.75,2.2c0,.82.22,1.51.65,2.08.43.56,1.02.99,1.77,1.27.75.29,1.61.43,2.59.43Z"/>
    <path class="st0" d="M254.67,1051.75v14.46h-3.91v-24.26h3.76l.02,5.87h-.66c.75-2.23,1.81-3.82,3.19-4.78,1.38-.96,3-1.44,4.86-1.44,1.64,0,3.09.34,4.34,1.02,1.25.68,2.23,1.71,2.94,3.08.71,1.37,1.07,3.09,1.07,5.17v15.34h-3.91v-15.03c0-1.9-.49-3.39-1.47-4.45-.98-1.06-2.33-1.59-4.04-1.59-1.17,0-2.22.25-3.15.75s-1.67,1.24-2.21,2.22-.81,2.2-.81,3.65Z"/>
    <path class="st0" d="M283.83,1066.74c-1.55,0-2.96-.29-4.21-.86-1.25-.57-2.25-1.41-2.99-2.53s-1.11-2.47-1.11-4.07c0-1.39.27-2.52.82-3.38.55-.86,1.28-1.55,2.2-2.05.92-.51,1.93-.88,3.05-1.13,1.12-.25,2.25-.45,3.4-.59,1.48-.19,2.67-.34,3.57-.44.9-.1,1.57-.28,2-.52.43-.24.65-.66.65-1.26v-.15c0-.98-.19-1.82-.58-2.53-.39-.7-.96-1.24-1.73-1.62-.76-.37-1.71-.56-2.83-.56s-2.15.18-2.98.54c-.83.36-1.5.82-2.02,1.38-.52.56-.88,1.16-1.09,1.79l-3.8-.99c.5-1.48,1.25-2.67,2.26-3.57,1.01-.9,2.17-1.56,3.48-1.98,1.31-.42,2.66-.63,4.05-.63.94,0,1.93.12,2.99.36,1.05.24,2.05.66,2.98,1.26.93.6,1.69,1.45,2.27,2.56.59,1.11.88,2.53.88,4.27v16.15h-3.85v-3.34h-.22c-.28.57-.72,1.16-1.32,1.76s-1.38,1.1-2.35,1.5c-.97.4-2.15.6-3.54.6ZM284.46,1063.26c1.48,0,2.72-.28,3.71-.85,1-.56,1.75-1.3,2.26-2.21s.77-1.86.77-2.86v-3.29c-.16.18-.49.34-1,.48-.5.15-1.09.28-1.76.4s-1.33.22-1.98.3c-.65.08-1.2.15-1.66.21-.94.12-1.82.32-2.64.6-.82.29-1.48.7-1.98,1.24s-.75,1.27-.75,2.2c0,.82.22,1.51.65,2.08.43.56,1.02.99,1.77,1.27.75.29,1.61.43,2.59.43Z"/>
    <path class="st0" d="M321,1066.74c-1.55,0-2.96-.29-4.21-.86-1.25-.57-2.25-1.41-2.99-2.53s-1.11-2.47-1.11-4.07c0-1.39.27-2.52.82-3.38.55-.86,1.28-1.55,2.2-2.05.92-.51,1.93-.88,3.05-1.13,1.12-.25,2.25-.45,3.4-.59,1.48-.19,2.67-.34,3.57-.44.9-.1,1.57-.28,2-.52.43-.24.65-.66.65-1.26v-.15c0-.98-.19-1.82-.58-2.53-.39-.7-.96-1.24-1.73-1.62-.76-.37-1.71-.56-2.83-.56s-2.15.18-2.98.54c-.83.36-1.5.82-2.02,1.38-.52.56-.88,1.16-1.09,1.79l-3.8-.99c.5-1.48,1.25-2.67,2.26-3.57,1.01-.9,2.17-1.56,3.48-1.98,1.31-.42,2.66-.63,4.05-.63.94,0,1.93.12,2.99.36,1.05.24,2.05.66,2.98,1.26.93.6,1.69,1.45,2.27,2.56.59,1.11.88,2.53.88,4.27v16.15h-3.85v-3.34h-.22c-.28.57-.72,1.16-1.32,1.76s-1.38,1.1-2.35,1.5c-.97.4-2.15.6-3.54.6ZM321.64,1063.26c1.48,0,2.72-.28,3.71-.85,1-.56,1.75-1.3,2.26-2.21s.77-1.86.77-2.86v-3.29c-.16.18-.49.34-1,.48-.5.15-1.09.28-1.76.4s-1.33.22-1.98.3c-.65.08-1.2.15-1.66.21-.94.12-1.82.32-2.64.6-.82.29-1.48.7-1.98,1.24s-.75,1.27-.75,2.2c0,.82.22,1.51.65,2.08.43.56,1.02.99,1.77,1.27.75.29,1.61.43,2.59.43Z"/>
    <path class="st0" d="M338.91,1066.21v-24.26h3.8l.02,5.32h-.35c.37-1.29.91-2.36,1.64-3.21.72-.85,1.57-1.49,2.55-1.91.97-.42,1.99-.64,3.04-.64,1.79,0,3.25.54,4.39,1.63s1.88,2.48,2.2,4.17h-.59c.31-1.17.84-2.19,1.6-3.07.76-.87,1.69-1.54,2.78-2.02,1.09-.48,2.29-.71,3.59-.71,1.42,0,2.72.31,3.89.92s2.11,1.55,2.8,2.79c.7,1.25,1.04,2.82,1.04,4.72v16.26h-3.91v-16.17c0-1.79-.5-3.06-1.49-3.82s-2.15-1.14-3.47-1.14c-1.11,0-2.07.23-2.87.69-.8.46-1.42,1.1-1.86,1.91-.44.81-.66,1.74-.66,2.78v15.75h-3.89v-16.57c0-1.38-.46-2.48-1.37-3.32-.92-.84-2.07-1.25-3.46-1.25-.97,0-1.87.22-2.71.67-.84.45-1.52,1.11-2.03,2-.51.89-.77,1.98-.77,3.28v15.18h-3.91Z"/>
    <path class="st0" d="M401.34,1066.78c-2.39,0-4.46-.4-6.23-1.2-1.77-.8-3.14-1.91-4.12-3.34-.98-1.43-1.52-3.11-1.63-5.04h4.22c.09,1.3.48,2.39,1.19,3.26.7.87,1.63,1.52,2.78,1.96,1.15.43,2.41.65,3.79.65,1.51,0,2.85-.24,4.03-.72s2.11-1.16,2.79-2.03c.68-.87,1.02-1.89,1.02-3.04,0-1.02-.28-1.87-.83-2.54-.56-.67-1.32-1.22-2.3-1.66-.97-.44-2.09-.83-3.35-1.17l-3.89-1.08c-2.8-.76-4.93-1.83-6.39-3.22-1.46-1.38-2.2-3.17-2.2-5.35,0-1.86.49-3.48,1.47-4.87.98-1.38,2.32-2.46,4.02-3.23,1.7-.77,3.62-1.15,5.76-1.15s4.1.39,5.77,1.17c1.66.78,2.97,1.85,3.92,3.21s1.46,2.92,1.52,4.66h-4.04c-.18-1.7-.93-3.02-2.26-3.96s-3.01-1.41-5.03-1.41c-1.41,0-2.64.23-3.71.7s-1.9,1.11-2.49,1.91c-.59.81-.89,1.73-.89,2.77s.33,1.95.98,2.63c.65.68,1.46,1.23,2.44,1.64.97.41,1.94.75,2.91,1.01l3.36.9c1.04.26,2.1.62,3.19,1.07,1.08.45,2.09,1.01,3.01,1.7s1.67,1.55,2.24,2.57c.57,1.03.86,2.26.86,3.69,0,1.82-.47,3.44-1.42,4.88-.95,1.44-2.3,2.57-4.08,3.39-1.77.83-3.9,1.24-6.39,1.24Z"/>
    <path class="st0" d="M428.69,1041.95v3.34h-12.68v-3.34h12.68ZM419.79,1036h3.91v24.02c0,1.04.22,1.8.65,2.27.43.48,1.16.71,2.19.71.26,0,.59-.02.98-.07.39-.04.74-.09,1.07-.13l.64,3.3c-.41.12-.87.2-1.37.26-.51.06-1,.09-1.48.09-2.09,0-3.71-.54-4.86-1.6s-1.71-2.58-1.71-4.53v-24.32Z"/>
    <path class="st0" d="M440.71,1066.74c-1.55,0-2.96-.29-4.21-.86-1.25-.57-2.25-1.41-2.99-2.53s-1.11-2.47-1.11-4.07c0-1.39.27-2.52.82-3.38.55-.86,1.28-1.55,2.2-2.05.92-.51,1.93-.88,3.05-1.13,1.12-.25,2.25-.45,3.4-.59,1.48-.19,2.67-.34,3.57-.44.9-.1,1.57-.28,2-.52.43-.24.65-.66.65-1.26v-.15c0-.98-.19-1.82-.58-2.53-.39-.7-.96-1.24-1.73-1.62-.76-.37-1.71-.56-2.83-.56s-2.15.18-2.98.54c-.83.36-1.5.82-2.02,1.38-.52.56-.88,1.16-1.09,1.79l-3.8-.99c.5-1.48,1.25-2.67,2.26-3.57,1.01-.9,2.17-1.56,3.48-1.98,1.31-.42,2.66-.63,4.05-.63.94,0,1.93.12,2.99.36,1.05.24,2.05.66,2.98,1.26.93.6,1.69,1.45,2.27,2.56.59,1.11.88,2.53.88,4.27v16.15h-3.85v-3.34h-.22c-.28.57-.72,1.16-1.32,1.76s-1.38,1.1-2.35,1.5c-.97.4-2.15.6-3.54.6ZM441.35,1063.26c1.48,0,2.72-.28,3.71-.85,1-.56,1.75-1.3,2.26-2.21s.77-1.86.77-2.86v-3.29c-.16.18-.49.34-1,.48-.5.15-1.09.28-1.76.4s-1.33.22-1.98.3c-.65.08-1.2.15-1.66.21-.94.12-1.82.32-2.64.6-.82.29-1.48.7-1.98,1.24s-.75,1.27-.75,2.2c0,.82.22,1.51.65,2.08.43.56,1.02.99,1.77,1.27.75.29,1.61.43,2.59.43Z"/>
    <path class="st0" d="M462.53,1051.75v14.46h-3.91v-24.26h3.76l.02,5.87h-.66c.75-2.23,1.81-3.82,3.19-4.78,1.38-.96,3-1.44,4.86-1.44,1.64,0,3.09.34,4.34,1.02,1.25.68,2.23,1.71,2.94,3.08.71,1.37,1.07,3.09,1.07,5.17v15.34h-3.91v-15.03c0-1.9-.49-3.39-1.47-4.45-.98-1.06-2.33-1.59-4.04-1.59-1.17,0-2.22.25-3.15.75s-1.67,1.24-2.21,2.22-.81,2.2-.81,3.65Z"/>
    <path class="st0" d="M493.91,1066.71c-2.04,0-3.83-.52-5.38-1.55-1.55-1.03-2.77-2.49-3.64-4.37-.87-1.88-1.31-4.11-1.31-6.67s.44-4.76,1.31-6.64,2.09-3.33,3.65-4.35c1.56-1.03,3.35-1.54,5.37-1.54,1.46,0,2.67.24,3.6.71.94.48,1.68,1.04,2.24,1.68.56.65,1,1.24,1.32,1.78h.24v-12.3h3.91v32.74h-3.78v-3.74h-.35c-.34.56-.79,1.17-1.36,1.82-.57.66-1.33,1.23-2.26,1.7-.94.48-2.12.71-3.56.71ZM494.48,1063.22c1.48,0,2.74-.38,3.77-1.15,1.03-.77,1.82-1.84,2.36-3.21.54-1.37.81-2.96.81-4.76s-.27-3.38-.8-4.72-1.32-2.4-2.35-3.15c-1.03-.75-2.3-1.13-3.79-1.13s-2.76.39-3.79,1.16c-1.03.78-1.82,1.84-2.35,3.2-.54,1.35-.8,2.9-.8,4.65s.27,3.3.8,4.68c.53,1.38,1.32,2.46,2.36,3.25s2.3,1.19,3.78,1.19Z"/>
    <path class="st0" d="M521.77,1066.74c-2.21,0-4.15-.52-5.81-1.57-1.66-1.05-2.96-2.52-3.89-4.41s-1.4-4.07-1.4-6.55.46-4.73,1.4-6.62c.93-1.9,2.23-3.37,3.89-4.42,1.66-1.05,3.6-1.57,5.81-1.57s4.15.52,5.82,1.57c1.67,1.05,2.97,2.52,3.9,4.42.93,1.9,1.4,4.11,1.4,6.62s-.47,4.66-1.4,6.55-2.23,3.36-3.9,4.41c-1.67,1.05-3.61,1.57-5.82,1.57ZM521.77,1063.24c1.61,0,2.95-.41,4.01-1.23,1.06-.82,1.85-1.92,2.37-3.28.52-1.37.78-2.88.78-4.52s-.26-3.17-.78-4.56c-.52-1.38-1.31-2.49-2.37-3.32-1.06-.83-2.4-1.24-4.01-1.24s-2.92.41-3.98,1.24c-1.05.83-1.85,1.93-2.37,3.31s-.79,2.9-.79,4.57.26,3.15.79,4.52c.53,1.37,1.31,2.46,2.36,3.28,1.05.82,2.38,1.23,3.99,1.23Z"/>
    <path class="st0" d="M538.34,1066.21v-24.26h3.76v3.74h.22c.45-1.23,1.24-2.22,2.35-2.97,1.11-.75,2.39-1.12,3.84-1.12.31,0,.65,0,1.03.02.38.02.67.03.88.04v3.93c-.12-.03-.41-.07-.87-.13-.46-.06-.96-.09-1.48-.09-1.1,0-2.09.23-2.98.7-.89.47-1.58,1.13-2.09,1.98-.51.85-.76,1.85-.76,3.01v15.14h-3.91Z"/>
    <path class="st0" d="M565.21,1041.95v3.34h-12.68v-3.34h12.68ZM556.31,1036h3.91v24.02c0,1.04.22,1.8.65,2.27.43.48,1.16.71,2.19.71.26,0,.59-.02.98-.07.39-.04.74-.09,1.07-.13l.64,3.3c-.41.12-.87.2-1.37.26-.51.06-1,.09-1.48.09-2.09,0-3.71-.54-4.86-1.6s-1.71-2.58-1.71-4.53v-24.32Z"/>
    <path class="st0" d="M581.53,1066.21v-3.03l15.18-21.82c.67-.97,1.38-1.93,2.12-2.9.74-.97,1.48-1.92,2.21-2.86l.48,1.36c-1.32.07-2.64.12-3.98.13-1.33.01-2.66.02-3.98.02h-12.02v-3.65h23.07v3.08l-14.92,21.42c-.72,1.03-1.47,2.05-2.25,3.08-.78,1.03-1.56,2.04-2.34,3.03l-.48-1.36c1.32-.07,2.63-.12,3.94-.13,1.31-.01,2.62-.02,3.92-.02h12.3v3.65h-23.27Z"/>
    <path class="st0" d="M618.87,1066.54c-1.64,0-3.09-.34-4.35-1.02-1.26-.68-2.25-1.71-2.96-3.08-.71-1.37-1.07-3.09-1.07-5.15v-15.34h3.91v15.01c0,1.92.5,3.41,1.48,4.47.99,1.06,2.34,1.59,4.05,1.59,1.16,0,2.2-.25,3.13-.76.93-.5,1.67-1.25,2.21-2.23s.81-2.19.81-3.63v-14.46h3.93v24.26h-3.78v-5.89h.64c-.76,2.26-1.84,3.86-3.23,4.8-1.39.95-2.99,1.42-4.79,1.42ZM615.63,1037.82c-.72,0-1.33-.26-1.83-.77-.51-.51-.76-1.13-.76-1.85s.26-1.31.77-1.81c.51-.5,1.12-.76,1.82-.76s1.33.25,1.83.76.76,1.11.76,1.81-.25,1.33-.76,1.85c-.5.51-1.12.77-1.83.77ZM624.89,1037.82c-.72,0-1.33-.26-1.85-.77-.51-.51-.77-1.13-.77-1.85s.26-1.31.77-1.81c.51-.5,1.13-.76,1.85-.76s1.31.25,1.81.76.76,1.11.76,1.81-.25,1.33-.76,1.85c-.5.51-1.11.77-1.81.77Z"/>
    <path class="st0" d="M636.66,1066.21v-24.26h3.76v3.74h.22c.45-1.23,1.24-2.22,2.35-2.97,1.11-.75,2.39-1.12,3.84-1.12.31,0,.65,0,1.03.02.38.02.67.03.88.04v3.93c-.12-.03-.41-.07-.87-.13-.46-.06-.96-.09-1.48-.09-1.1,0-2.09.23-2.98.7-.89.47-1.58,1.13-2.09,1.98-.51.85-.76,1.85-.76,3.01v15.14h-3.91Z"/>
    <path class="st0" d="M655.36,1037.82c-.73,0-1.37-.26-1.9-.77-.54-.51-.8-1.13-.8-1.85s.27-1.33.8-1.83c.53-.51,1.17-.76,1.9-.76s1.39.25,1.92.76c.53.5.8,1.12.8,1.83s-.27,1.33-.8,1.85c-.54.51-1.18.77-1.92.77ZM653.41,1066.21v-24.26h3.91v24.26h-3.91Z"/>
    <path class="st0" d="M673.86,1066.74c-2.21,0-4.15-.52-5.81-1.57-1.66-1.05-2.96-2.52-3.89-4.41-.93-1.89-1.4-4.07-1.4-6.55s.47-4.73,1.4-6.62c.93-1.9,2.23-3.37,3.89-4.42,1.66-1.05,3.6-1.57,5.81-1.57,1.22,0,2.36.16,3.43.48s2.04.79,2.9,1.41,1.6,1.36,2.22,2.23c.62.87,1.07,1.86,1.36,2.96l-3.8.83c-.16-.64-.42-1.23-.78-1.77-.36-.54-.79-1-1.31-1.4s-1.11-.7-1.78-.92-1.42-.33-2.24-.33c-1.6,0-2.92.41-3.98,1.24-1.05.83-1.85,1.93-2.37,3.31s-.79,2.9-.79,4.57.26,3.15.79,4.52c.53,1.37,1.32,2.46,2.36,3.28,1.05.82,2.38,1.23,3.99,1.23.82,0,1.57-.11,2.25-.33.68-.22,1.29-.53,1.81-.94s.97-.9,1.32-1.46c.35-.56.62-1.17.79-1.83l3.8.84c-.29,1.11-.75,2.11-1.36,2.99s-1.36,1.64-2.23,2.27c-.87.64-1.85,1.12-2.93,1.46-1.08.34-2.23.51-3.45.51Z"/>
    <path class="st0" d="M693.09,1051.75v14.46h-3.91v-32.74h3.91v14.35h-.79c.75-2.23,1.81-3.82,3.19-4.78,1.38-.96,3-1.44,4.86-1.44,1.64,0,3.09.34,4.35,1.02,1.26.68,2.25,1.71,2.96,3.08.71,1.37,1.07,3.09,1.07,5.17v15.34h-3.93v-15.03c0-1.9-.49-3.39-1.47-4.45-.98-1.06-2.33-1.59-4.04-1.59-1.17,0-2.22.25-3.15.75-.93.5-1.67,1.24-2.21,2.22s-.81,2.2-.81,3.65Z"/>
    <path class="st0" d="M737.85,1066.74c-2.34,0-4.37-.53-6.06-1.58s-3-2.52-3.91-4.39c-.91-1.88-1.36-4.05-1.36-6.53s.45-4.67,1.35-6.57c.9-1.9,2.18-3.39,3.82-4.46,1.65-1.07,3.56-1.6,5.75-1.6,1.38,0,2.7.23,3.98.69,1.27.46,2.42,1.19,3.43,2.17,1.01.99,1.81,2.26,2.39,3.81s.88,3.41.88,5.56v1.52h-19.07v-3.3h16.94l-1.78,1.19c0-1.6-.26-3.01-.78-4.24-.52-1.23-1.28-2.19-2.29-2.89-1-.7-2.24-1.04-3.7-1.04s-2.7.35-3.75,1.05c-1.05.7-1.85,1.64-2.41,2.8-.56,1.16-.83,2.44-.83,3.83v2.07c0,1.77.3,3.29.91,4.55.61,1.26,1.47,2.22,2.59,2.88,1.12.66,2.43.99,3.92.99,1,0,1.89-.15,2.69-.44.8-.29,1.48-.72,2.05-1.3s1-1.27,1.3-2.11l3.8.83c-.37,1.27-1,2.4-1.91,3.38-.91.98-2.04,1.75-3.4,2.3-1.35.55-2.88.82-4.56.82Z"/>
    <path class="st0" d="M753.47,1066.21v-24.26h3.76v3.74h.22c.45-1.23,1.24-2.22,2.35-2.97,1.11-.75,2.39-1.12,3.84-1.12.31,0,.65,0,1.03.02.38.02.67.03.88.04v3.93c-.12-.03-.41-.07-.87-.13-.46-.06-.96-.09-1.48-.09-1.1,0-2.09.23-2.98.7-.89.47-1.58,1.13-2.09,1.98-.51.85-.76,1.85-.76,3.01v15.14h-3.91Z"/>
    <path class="st0" d="M774.21,1051.75v14.46h-3.91v-32.74h3.91v14.35h-.79c.75-2.23,1.81-3.82,3.19-4.78,1.38-.96,3-1.44,4.86-1.44,1.64,0,3.09.34,4.35,1.02,1.26.68,2.25,1.71,2.96,3.08.71,1.37,1.07,3.09,1.07,5.17v15.34h-3.93v-15.03c0-1.9-.49-3.39-1.47-4.45-.98-1.06-2.33-1.59-4.04-1.59-1.17,0-2.22.25-3.15.75-.93.5-1.67,1.24-2.21,2.22s-.81,2.2-.81,3.65Z"/>
    <path class="st0" d="M803.39,1066.74c-1.55,0-2.96-.29-4.21-.86-1.25-.57-2.25-1.41-2.99-2.53-.74-1.11-1.11-2.47-1.11-4.07,0-1.39.27-2.52.82-3.38.55-.86,1.28-1.55,2.2-2.05.92-.51,1.93-.88,3.05-1.13,1.12-.25,2.25-.45,3.4-.59,1.48-.19,2.67-.34,3.57-.44.9-.1,1.57-.28,2-.52.43-.24.65-.66.65-1.26v-.15c0-.98-.19-1.82-.58-2.53-.39-.7-.96-1.24-1.73-1.62-.76-.37-1.71-.56-2.83-.56s-2.15.18-2.98.54c-.83.36-1.5.82-2.02,1.38-.52.56-.88,1.16-1.09,1.79l-3.8-.99c.5-1.48,1.25-2.67,2.26-3.57,1.01-.9,2.17-1.56,3.48-1.98,1.31-.42,2.66-.63,4.05-.63.94,0,1.93.12,2.99.36,1.05.24,2.05.66,2.98,1.26.93.6,1.69,1.45,2.27,2.56.58,1.11.88,2.53.88,4.27v16.15h-3.85v-3.34h-.22c-.28.57-.72,1.16-1.32,1.76s-1.38,1.1-2.35,1.5c-.97.4-2.15.6-3.54.6ZM800.62,1037.82c-.72,0-1.33-.26-1.83-.77-.5-.51-.76-1.13-.76-1.85s.26-1.31.77-1.81c.51-.5,1.12-.76,1.82-.76s1.33.25,1.83.76c.5.51.76,1.11.76,1.81s-.25,1.33-.76,1.85c-.51.51-1.12.77-1.83.77ZM804.03,1063.26c1.48,0,2.72-.28,3.71-.85,1-.56,1.75-1.3,2.26-2.21.51-.91.77-1.86.77-2.86v-3.29c-.16.18-.49.34-1,.48-.5.15-1.09.28-1.76.4-.67.12-1.33.22-1.98.3-.65.08-1.21.15-1.66.21-.94.12-1.82.32-2.64.6-.82.29-1.48.7-1.98,1.24s-.75,1.27-.75,2.2c0,.82.22,1.51.65,2.08.43.56,1.02.99,1.77,1.27.75.29,1.61.43,2.59.43ZM809.87,1037.82c-.72,0-1.33-.26-1.85-.77-.51-.51-.77-1.13-.77-1.85s.26-1.31.77-1.81c.51-.5,1.13-.76,1.85-.76s1.31.25,1.81.76c.5.51.76,1.11.76,1.81s-.25,1.33-.76,1.85c-.51.51-1.11.77-1.81.77Z"/>
    <path class="st0" d="M825.21,1033.47v32.74h-3.91v-32.74h3.91Z"/>
    <path class="st0" d="M842.2,1041.95v3.34h-12.68v-3.34h12.68ZM833.3,1036h3.91v24.02c0,1.04.22,1.8.65,2.27.43.48,1.16.71,2.19.71.26,0,.59-.02.98-.07.39-.04.74-.09,1.07-.13l.64,3.3c-.41.12-.87.2-1.37.26-.51.06-1,.09-1.48.09-2.09,0-3.71-.54-4.86-1.6s-1.71-2.58-1.71-4.53v-24.32Z"/>
    <path class="st0" d="M850.9,1033.47v32.74h-3.91v-32.74h3.91Z"/>
    <path class="st0" d="M859.49,1037.82c-.73,0-1.37-.26-1.9-.77-.54-.51-.8-1.13-.8-1.85s.27-1.33.8-1.83c.53-.51,1.17-.76,1.9-.76s1.39.25,1.92.76c.53.5.8,1.12.8,1.83s-.27,1.33-.8,1.85c-.54.51-1.18.77-1.92.77ZM857.53,1066.21v-24.26h3.91v24.26h-3.91Z"/>
    <path class="st0" d="M877.99,1066.74c-2.21,0-4.15-.52-5.81-1.57-1.66-1.05-2.96-2.52-3.89-4.41-.93-1.89-1.4-4.07-1.4-6.55s.47-4.73,1.4-6.62c.93-1.9,2.23-3.37,3.89-4.42,1.66-1.05,3.6-1.57,5.81-1.57,1.22,0,2.36.16,3.43.48s2.04.79,2.9,1.41,1.6,1.36,2.22,2.23c.62.87,1.07,1.86,1.36,2.96l-3.8.83c-.16-.64-.42-1.23-.78-1.77-.36-.54-.79-1-1.31-1.4s-1.11-.7-1.78-.92-1.42-.33-2.24-.33c-1.6,0-2.92.41-3.98,1.24-1.05.83-1.85,1.93-2.37,3.31s-.79,2.9-.79,4.57.26,3.15.79,4.52c.53,1.37,1.32,2.46,2.36,3.28,1.05.82,2.38,1.23,3.99,1.23.82,0,1.57-.11,2.25-.33.68-.22,1.29-.53,1.81-.94s.97-.9,1.32-1.46c.35-.56.62-1.17.79-1.83l3.8.84c-.29,1.11-.75,2.11-1.36,2.99s-1.36,1.64-2.23,2.27c-.87.64-1.85,1.12-2.93,1.46-1.08.34-2.23.51-3.45.51Z"/>
    <path class="st0" d="M897.21,1051.75v14.46h-3.91v-32.74h3.91v14.35h-.79c.75-2.23,1.81-3.82,3.19-4.78,1.38-.96,3-1.44,4.86-1.44,1.64,0,3.09.34,4.35,1.02,1.26.68,2.25,1.71,2.96,3.08.71,1.37,1.07,3.09,1.07,5.17v15.34h-3.93v-15.03c0-1.9-.49-3.39-1.47-4.45-.98-1.06-2.33-1.59-4.04-1.59-1.17,0-2.22.25-3.15.75-.93.5-1.67,1.24-2.21,2.22s-.81,2.2-.81,3.65Z"/>
    <path class="st0" d="M922.29,1066.52c-.81,0-1.49-.29-2.05-.86-.56-.57-.85-1.26-.85-2.07s.28-1.49.85-2.06c.56-.57,1.25-.86,2.05-.86s1.51.29,2.08.86c.56.57.85,1.26.85,2.06s-.28,1.49-.85,2.07c-.56.57-1.26.86-2.08.86Z"/>
    <path class="st0" d="M97.06,1174.78c-2.39,0-4.46-.4-6.23-1.2-1.77-.8-3.14-1.91-4.12-3.34-.98-1.43-1.52-3.11-1.63-5.04h4.22c.09,1.3.48,2.39,1.19,3.26.7.87,1.63,1.52,2.78,1.96,1.15.43,2.41.65,3.79.65,1.51,0,2.85-.24,4.03-.72s2.11-1.16,2.79-2.03c.68-.87,1.02-1.89,1.02-3.04,0-1.02-.28-1.87-.83-2.54-.56-.67-1.32-1.22-2.3-1.66-.97-.44-2.09-.83-3.35-1.17l-3.89-1.08c-2.8-.76-4.93-1.83-6.39-3.22-1.46-1.38-2.2-3.17-2.2-5.35,0-1.86.49-3.48,1.47-4.87.98-1.38,2.32-2.46,4.02-3.23,1.7-.77,3.62-1.15,5.76-1.15s4.1.39,5.77,1.17c1.66.78,2.97,1.85,3.92,3.21s1.46,2.92,1.52,4.66h-4.04c-.18-1.7-.93-3.02-2.26-3.96s-3.01-1.41-5.03-1.41c-1.41,0-2.64.23-3.71.7s-1.9,1.11-2.49,1.91c-.59.81-.89,1.73-.89,2.77s.33,1.95.98,2.63c.65.68,1.46,1.23,2.44,1.64.97.41,1.94.75,2.91,1.01l3.36.9c1.04.26,2.1.62,3.19,1.07,1.08.45,2.09,1.01,3.01,1.7s1.67,1.55,2.24,2.57c.57,1.03.86,2.26.86,3.69,0,1.82-.47,3.44-1.42,4.88-.95,1.44-2.3,2.57-4.08,3.39-1.77.83-3.9,1.24-6.39,1.24Z"/>
    <path class="st0" d="M116.59,1145.82c-.73,0-1.37-.26-1.9-.77-.54-.51-.8-1.13-.8-1.85s.27-1.33.8-1.83c.53-.51,1.17-.76,1.9-.76s1.39.25,1.92.76c.53.5.8,1.12.8,1.83s-.27,1.33-.8,1.85c-.54.51-1.18.77-1.92.77ZM114.64,1174.21v-24.26h3.91v24.26h-3.91Z"/>
    <path class="st0" d="M135.33,1174.74c-2.34,0-4.37-.53-6.06-1.58s-3-2.52-3.91-4.39-1.36-4.05-1.36-6.53.45-4.67,1.35-6.57c.9-1.9,2.18-3.39,3.82-4.46,1.65-1.07,3.56-1.6,5.75-1.6,1.38,0,2.7.23,3.98.69,1.27.46,2.42,1.19,3.43,2.17,1.01.99,1.81,2.26,2.4,3.81s.88,3.41.88,5.56v1.52h-19.07v-3.3h16.94l-1.78,1.19c0-1.6-.26-3.01-.78-4.24s-1.28-2.19-2.29-2.89c-1-.7-2.24-1.04-3.7-1.04s-2.7.35-3.75,1.05c-1.05.7-1.85,1.64-2.41,2.8-.56,1.16-.83,2.44-.83,3.83v2.07c0,1.77.3,3.29.91,4.55.61,1.26,1.47,2.22,2.59,2.88,1.12.66,2.43.99,3.92.99,1,0,1.89-.15,2.69-.44.8-.29,1.48-.72,2.05-1.3s1-1.27,1.3-2.11l3.8.83c-.37,1.27-1,2.4-1.91,3.38s-2.04,1.75-3.4,2.3c-1.35.55-2.87.82-4.56.82Z"/>
    <path class="st0" d="M174.45,1149.95v3.34h-14.04v-3.34h14.04ZM165.09,1174.21v-27.73c0-1.35.31-2.48.94-3.41.63-.92,1.46-1.62,2.49-2.09,1.03-.47,2.15-.7,3.35-.7.83,0,1.55.06,2.13.18s1,.23,1.25.33l-.86,3.34c-.19-.06-.47-.12-.82-.19-.36-.07-.78-.1-1.26-.1-1.17,0-2.02.29-2.54.87-.52.58-.78,1.44-.78,2.58v26.92h-3.91Z"/>
    <path class="st0" d="M181.28,1145.82c-.73,0-1.37-.26-1.9-.77-.54-.51-.8-1.13-.8-1.85s.27-1.33.8-1.83c.53-.51,1.17-.76,1.9-.76s1.39.25,1.92.76c.53.5.8,1.12.8,1.83s-.27,1.33-.8,1.85c-.54.51-1.18.77-1.92.77ZM179.32,1174.21v-24.26h3.91v24.26h-3.91Z"/>
    <path class="st0" d="M193.78,1159.75v14.46h-3.91v-24.26h3.76l.02,5.87h-.66c.75-2.23,1.81-3.82,3.19-4.78,1.38-.96,3-1.44,4.86-1.44,1.64,0,3.09.34,4.34,1.02,1.25.68,2.23,1.71,2.94,3.08.71,1.37,1.07,3.09,1.07,5.17v15.34h-3.91v-15.03c0-1.9-.49-3.39-1.47-4.45-.98-1.06-2.33-1.59-4.04-1.59-1.17,0-2.22.25-3.15.75s-1.67,1.24-2.21,2.22-.81,2.2-.81,3.65Z"/>
    <path class="st0" d="M225.16,1174.71c-2.04,0-3.83-.52-5.38-1.55-1.55-1.03-2.77-2.49-3.64-4.37-.87-1.88-1.31-4.11-1.31-6.67s.44-4.76,1.31-6.64,2.09-3.33,3.65-4.35c1.56-1.03,3.35-1.54,5.37-1.54,1.46,0,2.67.24,3.6.71.94.48,1.68,1.04,2.24,1.68.56.65,1,1.24,1.32,1.78h.24v-12.3h3.91v32.74h-3.78v-3.74h-.35c-.34.56-.79,1.17-1.36,1.82-.57.66-1.33,1.23-2.26,1.7-.94.48-2.12.71-3.56.71ZM225.73,1171.22c1.48,0,2.74-.38,3.77-1.15,1.03-.77,1.82-1.84,2.36-3.21.54-1.37.81-2.96.81-4.76s-.27-3.38-.8-4.72-1.32-2.4-2.35-3.15c-1.03-.75-2.3-1.13-3.79-1.13s-2.76.39-3.79,1.16c-1.03.78-1.82,1.84-2.35,3.2-.54,1.35-.8,2.9-.8,4.65s.27,3.3.8,4.68c.53,1.38,1.32,2.46,2.36,3.25s2.3,1.19,3.78,1.19Z"/>
    <path class="st0" d="M253.26,1174.74c-2.34,0-4.37-.53-6.06-1.58s-3-2.52-3.91-4.39-1.36-4.05-1.36-6.53.45-4.67,1.35-6.57c.9-1.9,2.18-3.39,3.82-4.46,1.65-1.07,3.56-1.6,5.75-1.6,1.38,0,2.7.23,3.98.69,1.27.46,2.42,1.19,3.43,2.17,1.01.99,1.81,2.26,2.4,3.81s.88,3.41.88,5.56v1.52h-19.07v-3.3h16.94l-1.78,1.19c0-1.6-.26-3.01-.78-4.24s-1.28-2.19-2.29-2.89c-1-.7-2.24-1.04-3.7-1.04s-2.7.35-3.75,1.05c-1.05.7-1.85,1.64-2.41,2.8-.56,1.16-.83,2.44-.83,3.83v2.07c0,1.77.3,3.29.91,4.55.61,1.26,1.47,2.22,2.59,2.88,1.12.66,2.43.99,3.92.99,1,0,1.89-.15,2.69-.44.8-.29,1.48-.72,2.05-1.3s1-1.27,1.3-2.11l3.8.83c-.37,1.27-1,2.4-1.91,3.38s-2.04,1.75-3.4,2.3c-1.35.55-2.87.82-4.56.82Z"/>
    <path class="st0" d="M272.8,1159.75v14.46h-3.91v-24.26h3.76l.02,5.87h-.66c.75-2.23,1.81-3.82,3.19-4.78,1.38-.96,3-1.44,4.86-1.44,1.64,0,3.09.34,4.34,1.02,1.25.68,2.23,1.71,2.94,3.08.71,1.37,1.07,3.09,1.07,5.17v15.34h-3.91v-15.03c0-1.9-.49-3.39-1.47-4.45-.98-1.06-2.33-1.59-4.04-1.59-1.17,0-2.22.25-3.15.75s-1.67,1.24-2.21,2.22-.81,2.2-.81,3.65Z"/>
    <path class="st0" d="M315.75,1174.54c-1.64,0-3.09-.34-4.35-1.02-1.26-.68-2.25-1.71-2.96-3.08-.71-1.37-1.07-3.09-1.07-5.15v-15.34h3.91v15.01c0,1.92.49,3.41,1.48,4.47.99,1.06,2.34,1.59,4.05,1.59,1.16,0,2.2-.25,3.13-.76.93-.5,1.67-1.25,2.21-2.23s.81-2.19.81-3.63v-14.46h3.93v24.26h-3.78v-5.89h.64c-.76,2.26-1.84,3.86-3.23,4.8-1.39.95-2.99,1.42-4.79,1.42Z"/>
    <path class="st0" d="M337.46,1159.75v14.46h-3.91v-24.26h3.76l.02,5.87h-.66c.75-2.23,1.81-3.82,3.19-4.78,1.38-.96,3-1.44,4.86-1.44,1.64,0,3.09.34,4.34,1.02,1.25.68,2.23,1.71,2.94,3.08.71,1.37,1.07,3.09,1.07,5.17v15.34h-3.91v-15.03c0-1.9-.49-3.39-1.47-4.45-.98-1.06-2.33-1.59-4.04-1.59-1.17,0-2.22.25-3.15.75s-1.67,1.24-2.21,2.22-.81,2.2-.81,3.65Z"/>
    <path class="st0" d="M367.98,1174.74c-1.67,0-3.16-.25-4.48-.76-1.32-.51-2.4-1.26-3.25-2.25s-1.4-2.23-1.65-3.69l3.74-.7c.31,1.36.94,2.37,1.9,3.02.96.65,2.19.98,3.7.98,1.68,0,3.03-.36,4.03-1.09,1-.73,1.5-1.59,1.5-2.6,0-.85-.3-1.55-.91-2.11-.61-.56-1.5-.97-2.67-1.23l-4.02-.97c-2.21-.51-3.86-1.32-4.94-2.43-1.08-1.11-1.63-2.52-1.63-4.23,0-1.39.38-2.62,1.15-3.68.77-1.06,1.83-1.89,3.17-2.49,1.35-.6,2.89-.9,4.61-.9s3.11.26,4.31.79,2.17,1.26,2.91,2.2,1.26,2.02,1.55,3.25l-3.58.72c-.26-.95-.8-1.8-1.62-2.54-.81-.74-2-1.11-3.55-1.11-1.46,0-2.67.34-3.61,1.01-.94.67-1.42,1.52-1.42,2.55,0,.91.33,1.63.99,2.18s1.67.97,3.03,1.3l3.71.88c2.23.53,3.87,1.34,4.93,2.43,1.06,1.09,1.59,2.48,1.59,4.16,0,1.44-.4,2.7-1.21,3.8s-1.92,1.96-3.35,2.58c-1.43.62-3.08.93-4.96.93Z"/>
    <path class="st0" d="M402.19,1174.74c-1.55,0-2.96-.29-4.21-.86-1.25-.57-2.25-1.41-2.99-2.53s-1.11-2.47-1.11-4.07c0-1.39.27-2.52.82-3.38.55-.86,1.28-1.55,2.2-2.05.92-.51,1.93-.88,3.05-1.13,1.12-.25,2.25-.45,3.4-.59,1.48-.19,2.67-.34,3.57-.44.9-.1,1.57-.28,2-.52.43-.24.65-.66.65-1.26v-.15c0-.98-.19-1.82-.58-2.53-.39-.7-.96-1.24-1.73-1.62-.76-.37-1.71-.56-2.83-.56s-2.15.18-2.98.54c-.83.36-1.5.82-2.02,1.38-.52.56-.88,1.16-1.09,1.79l-3.8-.99c.5-1.48,1.25-2.67,2.26-3.57,1.01-.9,2.17-1.56,3.48-1.98,1.31-.42,2.66-.63,4.05-.63.94,0,1.93.12,2.99.36,1.05.24,2.05.66,2.98,1.26.93.6,1.69,1.45,2.27,2.56.59,1.11.88,2.53.88,4.27v16.15h-3.85v-3.34h-.22c-.28.57-.72,1.16-1.32,1.76s-1.38,1.1-2.35,1.5c-.97.4-2.15.6-3.54.6ZM402.83,1171.26c1.48,0,2.72-.28,3.71-.85,1-.56,1.75-1.3,2.26-2.21s.77-1.86.77-2.86v-3.29c-.16.18-.49.34-1,.48-.5.15-1.09.28-1.76.4s-1.33.22-1.98.3c-.65.08-1.2.15-1.66.21-.94.12-1.82.32-2.64.6-.82.29-1.48.7-1.98,1.24s-.75,1.27-.75,2.2c0,.82.22,1.51.65,2.08.43.56,1.02.99,1.77,1.27.75.29,1.61.43,2.59.43Z"/>
    <path class="st0" d="M424.01,1159.75v14.46h-3.91v-24.26h3.76l.02,5.87h-.66c.75-2.23,1.81-3.82,3.19-4.78,1.38-.96,3-1.44,4.86-1.44,1.64,0,3.09.34,4.34,1.02,1.25.68,2.23,1.71,2.94,3.08.71,1.37,1.07,3.09,1.07,5.17v15.34h-3.91v-15.03c0-1.9-.49-3.39-1.47-4.45-.98-1.06-2.33-1.59-4.04-1.59-1.17,0-2.22.25-3.15.75s-1.67,1.24-2.21,2.22-.81,2.2-.81,3.65Z"/>
    <path class="st0" d="M467.74,1174.71c-2.04,0-3.83-.52-5.38-1.55-1.55-1.03-2.77-2.49-3.64-4.37-.87-1.88-1.31-4.11-1.31-6.67s.44-4.76,1.31-6.64,2.09-3.33,3.65-4.35c1.56-1.03,3.35-1.54,5.37-1.54,1.46,0,2.67.24,3.6.71.94.48,1.68,1.04,2.24,1.68.56.65,1,1.24,1.32,1.78h.24v-12.3h3.91v32.74h-3.78v-3.74h-.35c-.34.56-.79,1.17-1.36,1.82-.57.66-1.33,1.23-2.26,1.7-.94.48-2.12.71-3.56.71ZM468.31,1171.22c1.48,0,2.74-.38,3.77-1.15,1.03-.77,1.82-1.84,2.36-3.21.54-1.37.81-2.96.81-4.76s-.27-3.38-.8-4.72-1.32-2.4-2.35-3.15c-1.03-.75-2.3-1.13-3.79-1.13s-2.76.39-3.79,1.16c-1.03.78-1.82,1.84-2.35,3.2-.54,1.35-.8,2.9-.8,4.65s.27,3.3.8,4.68c.53,1.38,1.32,2.46,2.36,3.25s2.3,1.19,3.78,1.19Z"/>
    <path class="st0" d="M495.84,1174.74c-2.34,0-4.37-.53-6.06-1.58s-3-2.52-3.91-4.39-1.36-4.05-1.36-6.53.45-4.67,1.35-6.57c.9-1.9,2.18-3.39,3.82-4.46,1.65-1.07,3.56-1.6,5.75-1.6,1.38,0,2.7.23,3.98.69,1.27.46,2.42,1.19,3.43,2.17,1.01.99,1.81,2.26,2.4,3.81s.88,3.41.88,5.56v1.52h-19.07v-3.3h16.94l-1.78,1.19c0-1.6-.26-3.01-.78-4.24s-1.28-2.19-2.29-2.89c-1-.7-2.24-1.04-3.7-1.04s-2.7.35-3.75,1.05c-1.05.7-1.85,1.64-2.41,2.8-.56,1.16-.83,2.44-.83,3.83v2.07c0,1.77.3,3.29.91,4.55.61,1.26,1.47,2.22,2.59,2.88,1.12.66,2.43.99,3.92.99,1,0,1.89-.15,2.69-.44.8-.29,1.48-.72,2.05-1.3s1-1.27,1.3-2.11l3.8.83c-.37,1.27-1,2.4-1.91,3.38s-2.04,1.75-3.4,2.3c-1.35.55-2.87.82-4.56.82Z"/>
    <path class="st0" d="M511.46,1174.21v-24.26h3.76v3.74h.22c.45-1.23,1.24-2.22,2.35-2.97,1.11-.75,2.4-1.12,3.85-1.12.31,0,.65,0,1.03.02.38.02.67.03.88.04v3.93c-.12-.03-.41-.07-.87-.13-.46-.06-.96-.09-1.48-.09-1.1,0-2.09.23-2.98.7s-1.58,1.13-2.09,1.98c-.51.85-.76,1.85-.76,3.01v15.14h-3.91Z"/>
    <path class="st0" d="M97.06,1228.78c-2.39,0-4.46-.4-6.23-1.2-1.77-.8-3.14-1.91-4.12-3.34-.98-1.43-1.52-3.11-1.63-5.04h4.22c.09,1.3.48,2.39,1.19,3.26.7.87,1.63,1.52,2.78,1.96,1.15.43,2.41.65,3.79.65,1.51,0,2.85-.24,4.03-.72s2.11-1.16,2.79-2.03c.68-.87,1.02-1.89,1.02-3.04,0-1.02-.28-1.87-.83-2.54-.56-.67-1.32-1.22-2.3-1.66-.97-.44-2.09-.83-3.35-1.17l-3.89-1.08c-2.8-.76-4.93-1.83-6.39-3.22-1.46-1.38-2.2-3.17-2.2-5.35,0-1.86.49-3.48,1.47-4.87.98-1.38,2.32-2.46,4.02-3.23,1.7-.77,3.62-1.15,5.76-1.15s4.1.39,5.77,1.17c1.66.78,2.97,1.85,3.92,3.21s1.46,2.92,1.52,4.66h-4.04c-.18-1.7-.93-3.02-2.26-3.96s-3.01-1.41-5.03-1.41c-1.41,0-2.64.23-3.71.7s-1.9,1.11-2.49,1.91c-.59.81-.89,1.73-.89,2.77s.33,1.95.98,2.63c.65.68,1.46,1.23,2.44,1.64.97.41,1.94.75,2.91,1.01l3.36.9c1.04.26,2.1.62,3.19,1.07,1.08.45,2.09,1.01,3.01,1.7s1.67,1.55,2.24,2.57c.57,1.03.86,2.26.86,3.69,0,1.82-.47,3.44-1.42,4.88-.95,1.44-2.3,2.57-4.08,3.39-1.77.83-3.9,1.24-6.39,1.24Z"/>
    <path class="st0" d="M124.41,1203.95v3.34h-12.68v-3.34h12.68ZM115.52,1198h3.91v24.02c0,1.04.22,1.8.65,2.27.43.48,1.16.71,2.19.71.26,0,.59-.02.98-.07.39-.04.74-.09,1.07-.13l.64,3.3c-.41.12-.87.2-1.37.26-.51.06-1,.09-1.48.09-2.09,0-3.71-.54-4.86-1.6s-1.71-2.58-1.71-4.53v-24.32Z"/>
    <path class="st0" d="M136.43,1228.74c-1.55,0-2.96-.29-4.21-.86-1.25-.57-2.25-1.41-2.99-2.53s-1.11-2.47-1.11-4.07c0-1.39.27-2.52.82-3.38.55-.86,1.28-1.55,2.2-2.05.92-.51,1.93-.88,3.05-1.13,1.12-.25,2.25-.45,3.4-.59,1.48-.19,2.67-.34,3.57-.44.9-.1,1.57-.28,2-.52.43-.24.65-.66.65-1.26v-.15c0-.98-.19-1.82-.58-2.53-.39-.7-.96-1.24-1.73-1.62-.76-.37-1.71-.56-2.83-.56s-2.15.18-2.98.54c-.83.36-1.5.82-2.02,1.38-.52.56-.88,1.16-1.09,1.79l-3.8-.99c.5-1.48,1.25-2.67,2.26-3.57,1.01-.9,2.17-1.56,3.48-1.98,1.31-.42,2.66-.63,4.05-.63.94,0,1.93.12,2.99.36,1.05.24,2.05.66,2.98,1.26.93.6,1.69,1.45,2.27,2.56.59,1.11.88,2.53.88,4.27v16.15h-3.85v-3.34h-.22c-.28.57-.72,1.16-1.32,1.76s-1.38,1.1-2.35,1.5c-.97.4-2.15.6-3.54.6ZM137.07,1225.26c1.48,0,2.72-.28,3.71-.85,1-.56,1.75-1.3,2.26-2.21s.77-1.86.77-2.86v-3.29c-.16.18-.49.34-1,.48-.5.15-1.09.28-1.76.4s-1.33.22-1.98.3c-.65.08-1.2.15-1.66.21-.94.12-1.82.32-2.64.6-.82.29-1.48.7-1.98,1.24s-.75,1.27-.75,2.2c0,.82.22,1.51.65,2.08.43.56,1.02.99,1.77,1.27.75.29,1.61.43,2.59.43Z"/>
    <path class="st0" d="M154.34,1228.21v-24.26h3.8l.02,5.32h-.35c.37-1.29.91-2.36,1.64-3.21.72-.85,1.57-1.49,2.55-1.91.97-.42,1.99-.64,3.04-.64,1.79,0,3.25.54,4.39,1.63s1.88,2.48,2.2,4.17h-.59c.31-1.17.84-2.19,1.6-3.07.76-.87,1.69-1.54,2.78-2.02,1.09-.48,2.29-.71,3.59-.71,1.42,0,2.72.31,3.89.92s2.11,1.55,2.8,2.79c.7,1.25,1.04,2.82,1.04,4.72v16.26h-3.91v-16.17c0-1.79-.5-3.06-1.49-3.82s-2.15-1.14-3.47-1.14c-1.11,0-2.07.23-2.87.69-.8.46-1.42,1.1-1.86,1.91-.44.81-.66,1.74-.66,2.78v15.75h-3.89v-16.57c0-1.38-.46-2.48-1.37-3.32-.92-.84-2.07-1.25-3.46-1.25-.97,0-1.87.22-2.71.67-.84.45-1.52,1.11-2.03,2-.51.89-.77,1.98-.77,3.28v15.18h-3.91Z"/>
    <path class="st0" d="M193.39,1237.39v-33.44h3.78v3.82h.35c.32-.54.76-1.13,1.32-1.78.56-.64,1.3-1.2,2.24-1.68.94-.48,2.14-.71,3.6-.71,2.05,0,3.85.51,5.39,1.54s2.76,2.48,3.64,4.35,1.32,4.09,1.32,6.64-.44,4.79-1.31,6.67c-.87,1.88-2.08,3.34-3.62,4.37-1.55,1.03-3.34,1.55-5.39,1.55-1.42,0-2.6-.24-3.55-.71-.94-.48-1.7-1.04-2.26-1.7-.56-.66-1.01-1.27-1.35-1.82h-.24v12.92h-3.91ZM204.11,1225.22c1.49,0,2.76-.4,3.79-1.19,1.03-.79,1.82-1.88,2.35-3.25s.8-2.94.8-4.68-.26-3.29-.79-4.65c-.53-1.36-1.31-2.42-2.34-3.2-1.03-.78-2.3-1.16-3.81-1.16s-2.75.38-3.78,1.13c-1.03.75-1.81,1.81-2.34,3.15s-.8,2.92-.8,4.72.27,3.39.8,4.76c.53,1.37,1.32,2.44,2.36,3.21,1.04.77,2.29,1.15,3.76,1.15Z"/>
    <path class="st0" d="M231.62,1203.95v3.34h-14.04v-3.34h14.04ZM222.26,1228.21v-27.73c0-1.35.31-2.48.94-3.41.63-.92,1.46-1.62,2.49-2.09,1.03-.47,2.15-.7,3.35-.7.83,0,1.55.06,2.13.18s1,.23,1.25.33l-.86,3.34c-.19-.06-.47-.12-.82-.19-.36-.07-.78-.1-1.26-.1-1.17,0-2.02.29-2.54.87-.52.58-.78,1.44-.78,2.58v26.92h-3.91Z"/>
    <path class="st0" d="M245.53,1228.74c-2.34,0-4.37-.53-6.06-1.58s-3-2.52-3.91-4.39-1.36-4.05-1.36-6.53.45-4.67,1.35-6.57c.9-1.9,2.18-3.39,3.82-4.46,1.65-1.07,3.56-1.6,5.75-1.6,1.38,0,2.7.23,3.98.69,1.27.46,2.42,1.19,3.43,2.17,1.01.99,1.81,2.26,2.4,3.81s.88,3.41.88,5.56v1.52h-19.07v-3.3h16.94l-1.78,1.19c0-1.6-.26-3.01-.78-4.24s-1.28-2.19-2.29-2.89c-1-.7-2.24-1.04-3.7-1.04s-2.7.35-3.75,1.05c-1.05.7-1.85,1.64-2.41,2.8-.56,1.16-.83,2.44-.83,3.83v2.07c0,1.77.3,3.29.91,4.55.61,1.26,1.47,2.22,2.59,2.88,1.12.66,2.43.99,3.92.99,1,0,1.89-.15,2.69-.44.8-.29,1.48-.72,2.05-1.3s1-1.27,1.3-2.11l3.8.83c-.37,1.27-1,2.4-1.91,3.38s-2.04,1.75-3.4,2.3c-1.35.55-2.87.82-4.56.82Z"/>
    <path class="st0" d="M265.06,1213.75v14.46h-3.91v-24.26h3.76l.02,5.87h-.66c.75-2.23,1.81-3.82,3.19-4.78,1.38-.96,3-1.44,4.86-1.44,1.64,0,3.09.34,4.34,1.02,1.25.68,2.23,1.71,2.94,3.08.71,1.37,1.07,3.09,1.07,5.17v15.34h-3.91v-15.03c0-1.9-.49-3.39-1.47-4.45-.98-1.06-2.33-1.59-4.04-1.59-1.17,0-2.22.25-3.15.75s-1.67,1.24-2.21,2.22-.81,2.2-.81,3.65Z"/>
    <path class="st0" d="M298.61,1228.71c-1.42,0-2.6-.24-3.55-.71-.94-.48-1.7-1.04-2.27-1.7-.57-.66-1.03-1.27-1.36-1.82h-.35v3.74h-3.78v-32.74h3.91v12.3h.24c.32-.54.76-1.13,1.32-1.78.56-.64,1.3-1.2,2.23-1.68.93-.48,2.13-.71,3.59-.71,2.05,0,3.85.51,5.39,1.54s2.76,2.48,3.64,4.35,1.32,4.09,1.32,6.64-.44,4.79-1.31,6.67c-.87,1.88-2.08,3.34-3.62,4.37-1.55,1.03-3.34,1.55-5.39,1.55ZM298.02,1225.22c1.49,0,2.76-.4,3.79-1.19,1.03-.79,1.82-1.88,2.35-3.25s.8-2.94.8-4.68-.26-3.29-.79-4.65c-.53-1.36-1.31-2.42-2.34-3.2-1.03-.78-2.3-1.16-3.81-1.16s-2.75.38-3.78,1.13c-1.03.75-1.81,1.81-2.34,3.15s-.8,2.92-.8,4.72.27,3.39.8,4.76c.53,1.37,1.32,2.44,2.36,3.21,1.04.77,2.29,1.15,3.76,1.15Z"/>
    <path class="st0" d="M321.71,1228.74c-1.55,0-2.96-.29-4.21-.86-1.25-.57-2.25-1.41-2.99-2.53s-1.11-2.47-1.11-4.07c0-1.39.27-2.52.82-3.38.55-.86,1.28-1.55,2.2-2.05.92-.51,1.93-.88,3.05-1.13,1.12-.25,2.25-.45,3.4-.59,1.48-.19,2.67-.34,3.57-.44.9-.1,1.57-.28,2-.52.43-.24.65-.66.65-1.26v-.15c0-.98-.19-1.82-.58-2.53-.39-.7-.96-1.24-1.73-1.62-.76-.37-1.71-.56-2.83-.56s-2.15.18-2.98.54c-.83.36-1.5.82-2.02,1.38-.52.56-.88,1.16-1.09,1.79l-3.8-.99c.5-1.48,1.25-2.67,2.26-3.57,1.01-.9,2.17-1.56,3.48-1.98,1.31-.42,2.66-.63,4.05-.63.94,0,1.93.12,2.99.36,1.05.24,2.05.66,2.98,1.26.93.6,1.69,1.45,2.27,2.56.59,1.11.88,2.53.88,4.27v16.15h-3.85v-3.34h-.22c-.28.57-.72,1.16-1.32,1.76s-1.38,1.1-2.35,1.5c-.97.4-2.15.6-3.54.6ZM322.34,1225.26c1.48,0,2.72-.28,3.71-.85,1-.56,1.75-1.3,2.26-2.21s.77-1.86.77-2.86v-3.29c-.16.18-.49.34-1,.48-.5.15-1.09.28-1.76.4s-1.33.22-1.98.3c-.65.08-1.2.15-1.66.21-.94.12-1.82.32-2.64.6-.82.29-1.48.7-1.98,1.24s-.75,1.27-.75,2.2c0,.82.22,1.51.65,2.08.43.56,1.02.99,1.77,1.27.75.29,1.61.43,2.59.43Z"/>
    <path class="st0" d="M349.52,1228.74c-2.21,0-4.15-.52-5.81-1.57-1.66-1.05-2.96-2.52-3.89-4.41s-1.4-4.07-1.4-6.55.46-4.73,1.4-6.62c.93-1.9,2.23-3.37,3.89-4.42,1.66-1.05,3.6-1.57,5.81-1.57,1.22,0,2.36.16,3.43.48s2.04.79,2.9,1.41,1.6,1.36,2.22,2.23c.62.87,1.07,1.86,1.36,2.96l-3.8.83c-.16-.64-.42-1.23-.78-1.77-.36-.54-.79-1-1.31-1.4s-1.11-.7-1.78-.92-1.42-.33-2.24-.33c-1.6,0-2.92.41-3.98,1.24-1.05.83-1.85,1.93-2.37,3.31s-.79,2.9-.79,4.57.26,3.15.79,4.52c.53,1.37,1.31,2.46,2.36,3.28,1.05.82,2.38,1.23,3.99,1.23.82,0,1.57-.11,2.25-.33.68-.22,1.29-.53,1.81-.94s.97-.9,1.32-1.46c.35-.56.62-1.17.79-1.83l3.8.84c-.29,1.11-.75,2.11-1.36,2.99s-1.36,1.64-2.23,2.27c-.87.64-1.85,1.12-2.93,1.46-1.08.34-2.23.51-3.45.51Z"/>
    <path class="st0" d="M368.75,1213.75v14.46h-3.91v-32.74h3.91v14.35h-.79c.75-2.23,1.81-3.82,3.19-4.78,1.38-.96,3-1.44,4.86-1.44,1.64,0,3.09.34,4.35,1.02,1.26.68,2.24,1.71,2.96,3.08.71,1.37,1.07,3.09,1.07,5.17v15.34h-3.93v-15.03c0-1.9-.49-3.39-1.47-4.45-.98-1.06-2.33-1.59-4.04-1.59-1.17,0-2.22.25-3.15.75s-1.67,1.24-2.21,2.22-.81,2.2-.81,3.65Z"/>
    <path class="st0" d="M399.29,1228.74c-1.67,0-3.16-.25-4.48-.76-1.32-.51-2.4-1.26-3.25-2.25s-1.4-2.23-1.65-3.69l3.74-.7c.31,1.36.94,2.37,1.9,3.02.96.65,2.19.98,3.7.98,1.68,0,3.03-.36,4.03-1.09,1-.73,1.5-1.59,1.5-2.6,0-.85-.3-1.55-.91-2.11-.61-.56-1.5-.97-2.67-1.23l-4.02-.97c-2.21-.51-3.86-1.32-4.94-2.43-1.08-1.11-1.63-2.52-1.63-4.23,0-1.39.38-2.62,1.15-3.68.77-1.06,1.83-1.89,3.17-2.49,1.35-.6,2.89-.9,4.61-.9s3.11.26,4.31.79,2.17,1.26,2.91,2.2,1.26,2.02,1.55,3.25l-3.58.72c-.26-.95-.8-1.8-1.62-2.54-.81-.74-2-1.11-3.55-1.11-1.46,0-2.67.34-3.61,1.01-.94.67-1.42,1.52-1.42,2.55,0,.91.33,1.63.99,2.18s1.67.97,3.03,1.3l3.71.88c2.23.53,3.87,1.34,4.93,2.43,1.06,1.09,1.59,2.48,1.59,4.16,0,1.44-.4,2.7-1.21,3.8s-1.92,1.96-3.35,2.58c-1.43.62-3.08.93-4.96.93Z"/>
    <path class="st0" d="M424.1,1203.95v3.34h-12.68v-3.34h12.68ZM415.2,1198h3.91v24.02c0,1.04.22,1.8.65,2.27.43.48,1.16.71,2.19.71.26,0,.59-.02.98-.07.39-.04.74-.09,1.07-.13l.64,3.3c-.41.12-.87.2-1.37.26-.51.06-1,.09-1.48.09-2.09,0-3.71-.54-4.86-1.6s-1.71-2.58-1.71-4.53v-24.32Z"/>
    <path class="st0" d="M428.89,1228.21v-24.26h3.76v3.74h.22c.45-1.23,1.24-2.22,2.35-2.97,1.11-.75,2.4-1.12,3.85-1.12.31,0,.65,0,1.03.02.38.02.67.03.88.04v3.93c-.12-.03-.41-.07-.87-.13-.46-.06-.96-.09-1.48-.09-1.1,0-2.09.23-2.98.7s-1.58,1.13-2.09,1.98c-.51.85-.76,1.85-.76,3.01v15.14h-3.91Z"/>
    <path class="st0" d="M452.05,1228.74c-1.55,0-2.96-.29-4.21-.86-1.25-.57-2.25-1.41-2.99-2.53s-1.11-2.47-1.11-4.07c0-1.39.27-2.52.82-3.38.55-.86,1.28-1.55,2.2-2.05.92-.51,1.93-.88,3.05-1.13,1.12-.25,2.25-.45,3.4-.59,1.48-.19,2.67-.34,3.57-.44.9-.1,1.57-.28,2-.52.43-.24.65-.66.65-1.26v-.15c0-.98-.19-1.82-.58-2.53-.39-.7-.96-1.24-1.73-1.62-.76-.37-1.71-.56-2.83-.56s-2.15.18-2.98.54c-.83.36-1.5.82-2.02,1.38-.52.56-.88,1.16-1.09,1.79l-3.8-.99c.5-1.48,1.25-2.67,2.26-3.57,1.01-.9,2.17-1.56,3.48-1.98,1.31-.42,2.66-.63,4.05-.63.94,0,1.93.12,2.99.36,1.05.24,2.05.66,2.98,1.26.93.6,1.69,1.45,2.27,2.56.59,1.11.88,2.53.88,4.27v16.15h-3.85v-3.34h-.22c-.28.57-.72,1.16-1.32,1.76s-1.38,1.1-2.35,1.5c-.97.4-2.15.6-3.54.6ZM452.69,1225.26c1.48,0,2.72-.28,3.71-.85,1-.56,1.75-1.3,2.26-2.21s.77-1.86.77-2.86v-3.29c-.16.18-.49.34-1,.48-.5.15-1.09.28-1.76.4s-1.33.22-1.98.3c-.65.08-1.2.15-1.66.21-.94.12-1.82.32-2.64.6-.82.29-1.48.7-1.98,1.24s-.75,1.27-.75,2.2c0,.82.22,1.51.65,2.08.43.56,1.02.99,1.77,1.27.75.29,1.61.43,2.59.43Z"/>
    <path class="st0" d="M478.24,1228.74c-1.67,0-3.16-.25-4.48-.76-1.32-.51-2.4-1.26-3.25-2.25s-1.4-2.23-1.65-3.69l3.74-.7c.31,1.36.94,2.37,1.9,3.02.96.65,2.19.98,3.7.98,1.68,0,3.03-.36,4.03-1.09,1-.73,1.5-1.59,1.5-2.6,0-.85-.3-1.55-.91-2.11-.61-.56-1.5-.97-2.67-1.23l-4.02-.97c-2.21-.51-3.86-1.32-4.94-2.43-1.08-1.11-1.63-2.52-1.63-4.23,0-1.39.38-2.62,1.15-3.68.77-1.06,1.83-1.89,3.17-2.49,1.35-.6,2.89-.9,4.61-.9s3.11.26,4.31.79,2.17,1.26,2.91,2.2,1.26,2.02,1.55,3.25l-3.58.72c-.26-.95-.8-1.8-1.62-2.54-.81-.74-2-1.11-3.55-1.11-1.46,0-2.67.34-3.61,1.01-.94.67-1.42,1.52-1.42,2.55,0,.91.33,1.63.99,2.18s1.67.97,3.03,1.3l3.71.88c2.23.53,3.87,1.34,4.93,2.43,1.06,1.09,1.59,2.48,1.59,4.16,0,1.44-.4,2.7-1.21,3.8s-1.92,1.96-3.35,2.58c-1.43.62-3.08.93-4.96.93Z"/>
    <path class="st0" d="M501.47,1228.74c-1.67,0-3.16-.25-4.48-.76-1.32-.51-2.4-1.26-3.25-2.25s-1.4-2.23-1.65-3.69l3.74-.7c.31,1.36.94,2.37,1.9,3.02.96.65,2.19.98,3.7.98,1.68,0,3.03-.36,4.03-1.09,1-.73,1.5-1.59,1.5-2.6,0-.85-.3-1.55-.91-2.11-.61-.56-1.5-.97-2.67-1.23l-4.02-.97c-2.21-.51-3.86-1.32-4.94-2.43-1.08-1.11-1.63-2.52-1.63-4.23,0-1.39.38-2.62,1.15-3.68.77-1.06,1.83-1.89,3.17-2.49,1.35-.6,2.89-.9,4.61-.9s3.11.26,4.31.79,2.17,1.26,2.91,2.2,1.26,2.02,1.55,3.25l-3.58.72c-.26-.95-.8-1.8-1.62-2.54-.81-.74-2-1.11-3.55-1.11-1.46,0-2.67.34-3.61,1.01-.94.67-1.42,1.52-1.42,2.55,0,.91.33,1.63.99,2.18s1.67.97,3.03,1.3l3.71.88c2.23.53,3.87,1.34,4.93,2.43,1.06,1.09,1.59,2.48,1.59,4.16,0,1.44-.4,2.7-1.21,3.8s-1.92,1.96-3.35,2.58c-1.43.62-3.08.93-4.96.93Z"/>
    <path class="st0" d="M526.56,1228.74c-2.34,0-4.37-.53-6.06-1.58s-3-2.52-3.91-4.39-1.36-4.05-1.36-6.53.45-4.67,1.35-6.57c.9-1.9,2.18-3.39,3.82-4.46,1.65-1.07,3.56-1.6,5.75-1.6,1.38,0,2.7.23,3.98.69,1.27.46,2.42,1.19,3.43,2.17,1.01.99,1.81,2.26,2.4,3.81s.88,3.41.88,5.56v1.52h-19.07v-3.3h16.94l-1.78,1.19c0-1.6-.26-3.01-.78-4.24s-1.28-2.19-2.29-2.89c-1-.7-2.24-1.04-3.7-1.04s-2.7.35-3.75,1.05c-1.05.7-1.85,1.64-2.41,2.8-.56,1.16-.83,2.44-.83,3.83v2.07c0,1.77.3,3.29.91,4.55.61,1.26,1.47,2.22,2.59,2.88,1.12.66,2.43.99,3.92.99,1,0,1.89-.15,2.69-.44.8-.29,1.48-.72,2.05-1.3s1-1.27,1.3-2.11l3.8.83c-.37,1.27-1,2.4-1.91,3.38s-2.04,1.75-3.4,2.3c-1.35.55-2.87.82-4.56.82Z"/>
    <path class="st0" d="M565.27,1195.47v32.74h-4.04v-28.83h-.18l-7.98,5.78v-4.39l7.36-5.3h4.83Z"/>
    <path class="st0" d="M583.18,1228.67c-2.43,0-4.51-.67-6.23-2-1.72-1.33-3.04-3.25-3.97-5.76s-1.38-5.52-1.38-9.05.46-6.55,1.38-9.05,2.25-4.43,3.98-5.78c1.73-1.35,3.8-2.02,6.22-2.02s4.49.67,6.23,2.02c1.74,1.35,3.06,3.27,3.98,5.78.92,2.5,1.37,5.52,1.37,9.05s-.46,6.53-1.37,9.04c-.92,2.51-2.23,4.43-3.96,5.77-1.72,1.33-3.8,2-6.25,2ZM583.18,1225.04c1.61,0,2.98-.52,4.12-1.57,1.13-1.05,2-2.55,2.6-4.51s.9-4.33.9-7.1-.3-5.16-.9-7.14c-.6-1.98-1.47-3.49-2.6-4.54-1.14-1.05-2.51-1.57-4.12-1.57s-2.98.53-4.12,1.58c-1.13,1.05-2,2.57-2.6,4.54-.6,1.97-.9,4.35-.9,7.13s.3,5.13.9,7.1,1.47,3.47,2.6,4.51c1.14,1.05,2.51,1.57,4.12,1.57Z"/>
    <path class="st0" d="M600.34,1228.21v-3.08l11.03-11.54c1.26-1.32,2.3-2.47,3.12-3.46.82-.99,1.43-1.93,1.85-2.83.41-.9.62-1.87.62-2.91,0-1.19-.27-2.22-.81-3.09-.54-.87-1.28-1.54-2.22-2-.94-.46-2.01-.69-3.23-.69-1.3,0-2.43.27-3.37.8-.94.53-1.67,1.28-2.19,2.24-.51.96-.77,2.09-.77,3.39h-3.93c0-1.99.45-3.74,1.34-5.25s2.12-2.68,3.67-3.53c1.55-.84,3.32-1.26,5.32-1.26s3.72.41,5.24,1.23c1.52.82,2.71,1.93,3.57,3.33.86,1.4,1.3,2.99,1.3,4.76,0,1.23-.22,2.42-.67,3.57-.45,1.15-1.2,2.41-2.26,3.79-1.06,1.38-2.52,3.03-4.38,4.97l-7.54,7.71v.22h15.32v3.62h-20.98Z"/>
    <path class="st0" d="M626.71,1235.72l1.93-12.08h4.42l-3.38,12.08h-2.97Z"/>
    <path class="st0" d="M96.44,1282.67c-2.21,0-4.16-.39-5.84-1.17-1.68-.78-3-1.87-3.94-3.25-.95-1.38-1.42-2.96-1.42-4.74,0-1.39.29-2.68.86-3.87s1.35-2.18,2.34-2.97c.99-.79,2.1-1.29,3.33-1.49v-.13c-1.61-.4-2.9-1.27-3.88-2.63-.97-1.36-1.46-2.92-1.46-4.69,0-1.67.43-3.16,1.3-4.48s2.05-2.35,3.55-3.11c1.5-.75,3.23-1.13,5.17-1.13s3.61.38,5.12,1.13c1.51.75,2.7,1.79,3.56,3.11s1.3,2.81,1.3,4.48c0,1.77-.49,3.34-1.46,4.69-.97,1.35-2.25,2.23-3.83,2.63v.13c1.22.21,2.32.7,3.31,1.49.99.79,1.77,1.78,2.35,2.97.58,1.19.87,2.48.87,3.87,0,1.77-.48,3.35-1.43,4.74-.95,1.38-2.27,2.47-3.97,3.25-1.69.78-3.63,1.17-5.81,1.17ZM96.44,1279.07c1.45,0,2.71-.24,3.77-.71,1.06-.48,1.88-1.15,2.46-2.01.58-.86.87-1.88.87-3.05s-.31-2.29-.92-3.22c-.62-.93-1.46-1.67-2.53-2.21s-2.29-.81-3.65-.81-2.62.27-3.69.81-1.92,1.28-2.54,2.21c-.62.93-.93,2-.93,3.22s.29,2.19.87,3.05c.58.87,1.41,1.54,2.48,2.01,1.08.48,2.35.71,3.81.71ZM96.44,1263.58c1.16,0,2.19-.23,3.09-.69.9-.46,1.61-1.11,2.13-1.94s.78-1.8.78-2.9-.25-2.08-.76-2.89c-.51-.81-1.21-1.44-2.11-1.89-.9-.45-1.94-.67-3.13-.67s-2.26.22-3.16.67c-.91.45-1.61,1.08-2.11,1.89-.5.81-.75,1.78-.75,2.89s.25,2.07.76,2.9c.5.83,1.21,1.48,2.12,1.94.91.46,1.96.69,3.14.69Z"/>
    <path class="st0" d="M124.28,1282.67c-2.43,0-4.51-.67-6.23-2s-3.04-3.25-3.97-5.76-1.38-5.52-1.38-9.05.46-6.55,1.38-9.05,2.25-4.43,3.98-5.78c1.73-1.35,3.8-2.02,6.22-2.02s4.49.67,6.23,2.02c1.74,1.35,3.06,3.27,3.98,5.78s1.37,5.52,1.37,9.05-.46,6.53-1.37,9.04c-.92,2.51-2.23,4.43-3.96,5.77s-3.8,2-6.25,2ZM124.28,1279.04c1.61,0,2.98-.52,4.12-1.57,1.13-1.05,2-2.55,2.6-4.51s.9-4.33.9-7.1-.3-5.16-.9-7.14c-.6-1.98-1.47-3.49-2.6-4.54-1.14-1.05-2.51-1.57-4.12-1.57s-2.98.53-4.12,1.58-2,2.57-2.6,4.54c-.6,1.97-.9,4.35-.9,7.13s.3,5.13.9,7.1,1.47,3.47,2.6,4.51c1.14,1.05,2.51,1.57,4.12,1.57Z"/>
    <path class="st0" d="M152.5,1282.67c-2.43,0-4.51-.67-6.23-2s-3.04-3.25-3.97-5.76-1.38-5.52-1.38-9.05.46-6.55,1.38-9.05,2.25-4.43,3.98-5.78c1.73-1.35,3.8-2.02,6.22-2.02s4.49.67,6.23,2.02c1.74,1.35,3.06,3.27,3.98,5.78s1.37,5.52,1.37,9.05-.46,6.53-1.37,9.04c-.92,2.51-2.23,4.43-3.96,5.77s-3.8,2-6.25,2ZM152.5,1279.04c1.61,0,2.98-.52,4.12-1.57,1.13-1.05,2-2.55,2.6-4.51s.9-4.33.9-7.1-.3-5.16-.9-7.14c-.6-1.98-1.47-3.49-2.6-4.54-1.14-1.05-2.51-1.57-4.12-1.57s-2.98.53-4.12,1.58-2,2.57-2.6,4.54c-.6,1.97-.9,4.35-.9,7.13s.3,5.13.9,7.1,1.47,3.47,2.6,4.51c1.14,1.05,2.51,1.57,4.12,1.57Z"/>
    <path class="st0" d="M180.62,1282.67c-1.46,0-2.89-.27-4.26-.81s-2.61-1.42-3.69-2.63c-1.08-1.21-1.94-2.8-2.58-4.79-.64-1.98-.96-4.43-.96-7.33s.26-5.4.79-7.63c.53-2.23,1.31-4.13,2.34-5.69,1.03-1.56,2.29-2.75,3.78-3.56,1.49-.81,3.18-1.22,5.09-1.22s3.49.37,4.94,1.1,2.63,1.75,3.55,3.05c.92,1.3,1.5,2.81,1.75,4.53h-4.04c-.35-1.45-1.04-2.65-2.07-3.6s-2.39-1.43-4.09-1.43-3.18.5-4.39,1.5c-1.22,1-2.14,2.44-2.78,4.31-.64,1.87-.96,4.09-.96,6.67h.22c.57-.89,1.27-1.66,2.09-2.31s1.74-1.14,2.77-1.48c1.03-.34,2.1-.52,3.23-.52,1.9,0,3.63.46,5.19,1.39,1.55.93,2.79,2.21,3.71,3.85.92,1.63,1.38,3.5,1.38,5.59s-.46,3.93-1.37,5.59c-.92,1.66-2.2,2.98-3.86,3.96-1.66.97-3.58,1.46-5.78,1.46ZM180.62,1279.02c1.32,0,2.5-.33,3.56-.99s1.89-1.54,2.52-2.66c.62-1.11.93-2.35.93-3.71s-.3-2.57-.9-3.66c-.6-1.09-1.42-1.96-2.46-2.6s-2.22-.97-3.54-.97c-1,0-1.93.19-2.79.58-.86.39-1.62.92-2.26,1.59s-1.15,1.45-1.52,2.33-.55,1.8-.55,2.77c0,1.3.31,2.51.92,3.63s1.45,2.01,2.5,2.68c1.05.67,2.25,1.01,3.58,1.01Z"/>
    <path class="st0" d="M209.01,1282.21v-3.03l15.18-21.82c.67-.97,1.38-1.93,2.12-2.9.74-.97,1.48-1.92,2.21-2.86l.48,1.36c-1.32.07-2.64.12-3.98.13s-2.66.02-3.98.02h-12.02v-3.65h23.07v3.08l-14.92,21.42c-.72,1.03-1.47,2.05-2.25,3.08-.78,1.03-1.56,2.04-2.34,3.03l-.48-1.36c1.32-.07,2.63-.12,3.94-.13s2.62-.02,3.92-.02h12.3v3.65h-23.27Z"/>
    <path class="st0" d="M246.34,1282.54c-1.64,0-3.09-.34-4.35-1.02-1.26-.68-2.25-1.71-2.96-3.08-.71-1.37-1.07-3.09-1.07-5.15v-15.34h3.91v15.01c0,1.92.49,3.41,1.48,4.47.99,1.06,2.34,1.59,4.05,1.59,1.16,0,2.2-.25,3.13-.76.93-.5,1.67-1.25,2.21-2.23s.81-2.19.81-3.63v-14.46h3.93v24.26h-3.78v-5.89h.64c-.76,2.26-1.84,3.86-3.23,4.8-1.39.95-2.99,1.42-4.79,1.42ZM243.11,1253.82c-.72,0-1.33-.26-1.83-.77-.51-.51-.76-1.13-.76-1.85s.26-1.31.77-1.81c.51-.5,1.12-.76,1.82-.76s1.33.25,1.83.76.76,1.11.76,1.81-.25,1.33-.76,1.85c-.5.51-1.12.77-1.83.77ZM252.36,1253.82c-.72,0-1.33-.26-1.85-.77-.51-.51-.77-1.13-.77-1.85s.26-1.31.77-1.81c.51-.5,1.13-.76,1.85-.76s1.31.25,1.81.76.76,1.11.76,1.81-.25,1.33-.76,1.85c-.5.51-1.11.77-1.81.77Z"/>
    <path class="st0" d="M264.14,1282.21v-24.26h3.76v3.74h.22c.45-1.23,1.24-2.22,2.35-2.97,1.11-.75,2.4-1.12,3.85-1.12.31,0,.65,0,1.03.02.38.02.67.03.88.04v3.93c-.12-.03-.41-.07-.87-.13-.46-.06-.96-.09-1.48-.09-1.1,0-2.09.23-2.98.7s-1.58,1.13-2.09,1.98c-.51.85-.76,1.85-.76,3.01v15.14h-3.91Z"/>
    <path class="st0" d="M282.84,1253.82c-.73,0-1.37-.26-1.9-.77-.54-.51-.8-1.13-.8-1.85s.27-1.33.8-1.83c.53-.51,1.17-.76,1.9-.76s1.39.25,1.92.76c.53.5.8,1.12.8,1.83s-.27,1.33-.8,1.85c-.54.51-1.18.77-1.92.77ZM280.88,1282.21v-24.26h3.91v24.26h-3.91Z"/>
    <path class="st0" d="M301.34,1282.74c-2.21,0-4.15-.52-5.81-1.57-1.66-1.05-2.96-2.52-3.89-4.41s-1.4-4.07-1.4-6.55.46-4.73,1.4-6.62c.93-1.9,2.23-3.37,3.89-4.42,1.66-1.05,3.6-1.57,5.81-1.57,1.22,0,2.36.16,3.43.48s2.04.79,2.9,1.41,1.6,1.36,2.22,2.23c.62.87,1.07,1.86,1.36,2.96l-3.8.83c-.16-.64-.42-1.23-.78-1.77-.36-.54-.79-1-1.31-1.4s-1.11-.7-1.78-.92-1.42-.33-2.24-.33c-1.6,0-2.92.41-3.98,1.24-1.05.83-1.85,1.93-2.37,3.31s-.79,2.9-.79,4.57.26,3.15.79,4.52c.53,1.37,1.31,2.46,2.36,3.28,1.05.82,2.38,1.23,3.99,1.23.82,0,1.57-.11,2.25-.33.68-.22,1.29-.53,1.81-.94s.97-.9,1.32-1.46c.35-.56.62-1.17.79-1.83l3.8.84c-.29,1.11-.75,2.11-1.36,2.99s-1.36,1.64-2.23,2.27c-.87.64-1.85,1.12-2.93,1.46-1.08.34-2.23.51-3.45.51Z"/>
    <path class="st0" d="M320.56,1267.75v14.46h-3.91v-32.74h3.91v14.35h-.79c.75-2.23,1.81-3.82,3.19-4.78,1.38-.96,3-1.44,4.86-1.44,1.64,0,3.09.34,4.35,1.02,1.26.68,2.24,1.71,2.96,3.08.71,1.37,1.07,3.09,1.07,5.17v15.34h-3.93v-15.03c0-1.9-.49-3.39-1.47-4.45-.98-1.06-2.33-1.59-4.04-1.59-1.17,0-2.22.25-3.15.75s-1.67,1.24-2.21,2.22-.81,2.2-.81,3.65Z"/>
  </g>
</svg>