<?xml version="1.0" encoding="UTF-8"?>
<svg id="Ebene_1" xmlns="http://www.w3.org/2000/svg" version="1.1" viewBox="0 0 1080 1920">
  <!-- Generator: Adobe Illustrator 29.5.1, SVG Export Plug-In . SVG Version: 2.1.0 Build 141)  -->
  <defs>
    <style>
      .st0, .st1 {
        fill: #966969;
      }

      .st1 {
        opacity: .4;
      }

      .st2 {
        fill: #c8323c;
      }

      .st3 {
        fill: #fff;
      }

      .st4 {
        fill: #64b44b;
      }
    </style>
  </defs>
  <rect class="st1" width="1080" height="1920"/>
  <rect class="st2" y="1436.24" width="500.67" height="33.38"/>
  <rect class="st3" y="1502.98" width="636.06" height="33.38"/>
  <rect class="st4" y="1569.67" width="500.67" height="33.38"/>
  <g>
    <path class="st0" d="M134.76,744.93c16.97,2.2,19.78,10.76,19.78,16.14,0,3.56-1.44,6.82-4.09,9.4-7.5,7.35-24.02,7.88-28.57,7.88h-38.34v-52.97h23.57c9.32,0,28.64,0,28.64,14.02,0,2.12-.3,3.94-.91,5.46l-.08.08ZM142.79,763.57c.98-.99,1.14-1.82,1.14-2.5,0-5.08-9.02-6.9-18.11-6.9h-32.66v14.47h27.73c6.67.15,17.88-1.14,21.97-5.08h-.08ZM93.23,744.48h11.82c20.84,0,20.84-2.5,20.84-4.93,0-1.97-3.26-4.32-18.79-4.32h-13.79l-.08,9.25Z"/>
    <path class="st0" d="M163.78,778.35v-53.04h9.77v53.04h-9.77Z"/>
    <path class="st0" d="M192.43,768.57h56.23v9.78h-66v-53.04h9.77v43.27Z"/>
    <path class="st0" d="M327.08,750.46c0,19.25-24.17,27.88-41.37,27.88h-31.3v-53.04h27.2c21.97,0,45.46,6.59,45.46,25.16ZM285.71,768.5c10.99,0,31.52-5.3,31.52-18.03s-22.43-15.38-35.69-15.38h-17.35v33.42h21.52Z"/>
    <path class="st0" d="M357.55,725.3h72.44v9.78h-62.74v9.02h47.44v9.77h-47.44v24.48h-9.77l.08-53.04Z"/>
    <path class="st0" d="M513.12,751.83c0,14.85-18.34,26.52-41.75,26.52s-41.75-11.67-41.75-26.52,18.34-26.52,41.75-26.52,41.75,11.67,41.75,26.52ZM503.34,751.83c0-9.85-16.82-17.43-31.98-17.43s-31.98,7.58-31.98,17.43,16.82,17.43,31.98,17.43,31.98-7.58,31.98-17.43Z"/>
    <path class="st0" d="M530.17,768.57h56.23v9.78h-66v-53.04h9.77v43.27Z"/>
    <path class="st0" d="M632.32,746.52h35.08v4.85c0,12.88-10.99,22.88-28.64,26.07-3.33.61-6.82.91-10.31.91-13.03,0-26.45-4.02-34.48-10.76-5.38-4.47-8.18-9.93-8.18-15.84,0-14.85,18.87-26.52,42.96-26.52,12.43,0,24.17,3.18,32.2,8.79l-5.61,8.03c-6.44-4.47-16.14-7.05-26.6-7.05-15.69,0-33.19,6.9-33.19,16.75,0,2.96,1.59,5.76,4.7,8.33,8.03,6.74,23.87,10.08,36.83,7.73,9.93-1.82,16.9-6.06,19.47-11.59h-24.17l-.08-9.7Z"/>
    <path class="st0" d="M666.88,725.3h76.53v9.78h-33.42v43.27h-9.78v-43.27h-33.42l.08-9.78Z"/>
  </g>
</svg>